<svg xmlns="http://www.w3.org/2000/svg" width="46.845" height="46.845" viewBox="0 0 46.845 46.845">
  <path id="_002-twitter" data-name="002-twitter" d="M23.423,0A23.423,23.423,0,1,0,46.845,23.423,23.425,23.425,0,0,0,23.423,0Zm3.022,36.65c-5.764.1-7.947-4.106-7.947-7.066V20.939H15.819V17.522a8.1,8.1,0,0,0,5.206-7.13.209.209,0,0,1,.191-.2h3.875v6.74h5.3V20.94H25.072v8.236c.017,1.12.428,2.664,2.546,2.608a6.226,6.226,0,0,0,2.134-.456L31.026,35.1C30.549,35.8,28.389,36.616,26.444,36.65Zm0,0" fill="#fff"/>
</svg>
