<svg xmlns="http://www.w3.org/2000/svg" width="24.291" height="24.292" viewBox="0 0 24.291 24.292">
  <path id="call.1" d="M21.636,17.036a2.768,2.768,0,0,0-2.033.534c-.585.341-1.7,1.244-2.336,1.013A14.492,14.492,0,0,1,9.6,11.1c-.234-.651.664-1.771,1-2.364a2.837,2.837,0,0,0,.53-2.047A16.646,16.646,0,0,0,8.3,2.747,2.323,2.323,0,0,0,6.884,2c-1.823-.078-3.86,2.355-4.217,2.937-.895,1.241-.89,2.893.015,4.9,2.181,5.379,10.428,13.5,15.827,15.758a6.524,6.524,0,0,0,2.726.7,3.546,3.546,0,0,0,2.127-.667c.462-.266,3-2.4,2.929-4.276a2.357,2.357,0,0,0-.738-1.417A16.766,16.766,0,0,0,21.636,17.036Z" transform="translate(-2 -2)" fill="#619ef5"/>
</svg>
