<svg xmlns="http://www.w3.org/2000/svg" width="45.975" height="51.222" viewBox="0 0 45.975 51.222">
  <g id="Groupe_120" data-name="Groupe 120" transform="translate(-3615 -1280.625)">
    <path id="Union_7" data-name="Union 7" d="M0,1.814A1.814,1.814,0,1,1,1.814,3.629,1.815,1.815,0,0,1,0,1.814Z" transform="translate(3647.792 1294.058)" fill="#619ef5"/>
    <path id="Union_4" data-name="Union 4" d="M0,1.814A1.814,1.814,0,1,1,1.814,3.629,1.815,1.815,0,0,1,0,1.814Z" transform="translate(3644.489 1290.754)" fill="#619ef5"/>
    <path id="Union_6" data-name="Union 6" d="M0,1.814A1.814,1.814,0,1,1,1.814,3.629,1.815,1.815,0,0,1,0,1.814Z" transform="translate(3644.489 1297.362)" fill="#619ef5"/>
    <path id="Union_5" data-name="Union 5" d="M0,1.814A1.814,1.814,0,1,1,1.814,3.629,1.815,1.815,0,0,1,0,1.814Z" transform="translate(3641.185 1294.058)" fill="#619ef5"/>
    <path id="Union_3" data-name="Union 3" d="M1.535,3.167A1.584,1.584,0,0,1,1.535,0H4.829a1.584,1.584,0,0,1,0,3.167Z" transform="translate(3635.113 1290.368)" fill="#619ef5"/>
    <path id="Union_8" data-name="Union 8" d="M2.207,5.926a.621.621,0,0,1-.572-.659V4.291H.663A.622.622,0,0,1,0,3.723V2.178a.685.685,0,0,1,.663-.645h.971v-.9A.6.6,0,0,1,2.207,0H3.752a.656.656,0,0,1,.641.635v.9h.9a.645.645,0,0,1,.443.2.655.655,0,0,1,.188.449V3.723a.592.592,0,0,1-.631.568h-.9v.976a.677.677,0,0,1-.641.659Z" transform="translate(3626.647 1292.922)" fill="#619ef5"/>
    <path id="Tracé_1407" data-name="Tracé 1407" d="M330.119,146.671a.934.934,0,1,0-.934.934A.934.934,0,0,0,330.119,146.671Zm-1.226,0a.292.292,0,1,1,.292.292A.292.292,0,0,1,328.893,146.671Z" transform="translate(3317.118 1149.202)" fill="#fff"/>
    <path id="Tracé_1409" data-name="Tracé 1409" d="M130.859,116.6a4.979,4.979,0,1,0-4.979-4.979A4.979,4.979,0,0,0,130.859,116.6Zm0-8.733a3.753,3.753,0,1,1-3.753,3.753A3.753,3.753,0,0,1,130.859,107.87Z" transform="translate(3498.813 1184.301)" fill="#fff"/>
    <path id="Tracé_1410" data-name="Tracé 1410" d="M74.359,14.973H67.133a7.583,7.583,0,0,0-4.83-1.737H58.687V12.93a1.855,1.855,0,0,0-1.892-1.84h-.969v-.746a1.442,1.442,0,0,0-.919-1.319V8.04a1.175,1.175,0,0,1,2.35,0V9.318a2.892,2.892,0,0,0,2.888,2.89.613.613,0,0,0,0-1.226,1.665,1.665,0,0,1-1.662-1.664V8.04a2.4,2.4,0,0,0-4.8,0V9.052a1.447,1.447,0,0,0-.919,1.293v.746h-.967A1.926,1.926,0,0,0,49.9,13.024v.213H45.578a7.628,7.628,0,0,0-4.832,1.737H33.621A2.6,2.6,0,0,0,31,17.537V46.324a2.6,2.6,0,0,0,2.621,2.568H47.653v2.372a1.36,1.36,0,0,1-1.358,1.36,3.6,3.6,0,0,0-3.571,3.6.636.636,0,0,0,.614.639H64.055a.635.635,0,0,0,.613-.639,3.6,3.6,0,0,0-3.586-3.585,1.384,1.384,0,0,1-1.373-1.373V48.892H74.359a2.6,2.6,0,0,0,2.615-2.568V17.537a2.6,2.6,0,0,0-2.615-2.564ZM53.987,10.345c0-.176.22-.195.306-.195s.307.019.307.195v.746h-.613Zm-2.861,2.679a.711.711,0,0,1,.668-.707h5a.628.628,0,0,1,.666.614v.306H51.127Zm-5.548,1.439H62.3a6.385,6.385,0,1,1,0,12.771h0a6.358,6.358,0,0,1-5.223-2.657,3.7,3.7,0,0,0-3.05-1.532h-.15a3.72,3.72,0,0,0-3.055,1.565,6.418,6.418,0,1,1-5.241-10.147Zm23.6,16.791a3.742,3.742,0,0,1-2.5,4.13,3.547,3.547,0,0,1-4.136-1.677l-3.083-5.749a7.608,7.608,0,0,0,2.841.552H62.3a7.572,7.572,0,0,0,5.408-2.259,7.811,7.811,0,0,0,.619-.707ZM48.419,27.974l-3.106,5.674a3.536,3.536,0,0,1-6.6-2.216l.863-5.828a7.644,7.644,0,0,0,8.842,2.37Zm12.663,25.9a2.362,2.362,0,0,1,2.279,1.759H44.032A2.343,2.343,0,0,1,46.3,53.876a2.609,2.609,0,0,0,2.584-2.612V48.892h9.6v2.372a2.622,2.622,0,0,0,2.6,2.612Zm14.667-7.552a1.372,1.372,0,0,1-1.389,1.342H33.621a1.376,1.376,0,0,1-1.395-1.342V42.456H75.749Zm0-5.095H32.226V17.537A1.373,1.373,0,0,1,33.621,16.2h5.932c-.07.09-.138.18-.2.273a7.6,7.6,0,0,0-1.29,5.7,7.7,7.7,0,0,0,.525,1.763L37.5,31.251a4.762,4.762,0,0,0,8.886,2.985l4.108-7.5a7.48,7.48,0,0,0,1.326-1.418,2.494,2.494,0,0,1,2.054-1.045h.148a2.492,2.492,0,0,1,2.049,1.038,7.531,7.531,0,0,0,1.333,1.433L61.462,34.3a4.78,4.78,0,0,0,4.188,2.47,4.722,4.722,0,0,0,1.386-.209A4.953,4.953,0,0,0,70.393,31.1c0-.007,0-.014,0-.02l-1.069-7.218a7.609,7.609,0,0,0-1-7.667h6.036a1.368,1.368,0,0,1,1.389,1.338Z" transform="translate(3584 1274.986)" fill="#fff"/>
    <path id="Tracé_1411" data-name="Tracé 1411" d="M239.1,376.927a1.6,1.6,0,1,0-1.6-1.6A1.6,1.6,0,0,0,239.1,376.927Zm0-1.973a.374.374,0,1,1-.374.373A.373.373,0,0,1,239.1,374.954Z" transform="translate(3398.597 944.504)" fill="#fff"/>
  </g>
</svg>
