<svg xmlns="http://www.w3.org/2000/svg" width="50.106" height="50.955" viewBox="0 0 50.106 50.955">
  <g id="Groupe_122" data-name="Groupe 122" transform="translate(-3942 -1280.625)">
    <path id="Tracé_1551" data-name="Tracé 1551" d="M232.5,432h1.7v1.7h-1.7Zm0,0" transform="translate(3734.128 894.484)" fill="#fff"/>
    <path id="Union_10" data-name="Union 10" d="M0,22.081a3.075,3.075,0,0,0,1.7-2.749v-1.5a5.1,5.1,0,0,1,5.1-5.1l4.246,4.246a5.1,5.1,0,0,1-5.1,5.1Zm6.794-9.342L20.707.463a1.848,1.848,0,0,1,2.609,2.609L11.04,16.985Z" transform="translate(3968.327 1298.459)" fill="#619ef5"/>
    <path id="Tracé_1557" data-name="Tracé 1557" d="M32.5,392h4.246v1.7H32.5Zm0,0" transform="translate(3912.897 930.238)" fill="#fff"/>
    <path id="Tracé_1558" data-name="Tracé 1558" d="M88.5,392h7.643v1.7H88.5Zm0,0" transform="translate(3862.842 930.238)" fill="#fff"/>
    <path id="Tracé_1562" data-name="Tracé 1562" d="M51.676,92.739H49.085A11.041,11.041,0,0,0,38.937,82.591V80h-1.7v2.591A11.041,11.041,0,0,0,27.091,92.739H24.5v1.7h2.593a10.991,10.991,0,0,0,10.146,10.152v2.587h1.7v-2.587A10.991,10.991,0,0,0,49.083,94.437h2.593Zm-7.36,7.813a9.3,9.3,0,0,1-5.378,2.339v-1.66h-1.7v1.66a9.316,9.316,0,0,1-8.447-8.453h1.653v-1.7H28.789a9.351,9.351,0,0,1,8.449-8.449v1.655h1.7V84.289a9.351,9.351,0,0,1,8.449,8.449H45.731v1.7h1.653a9.346,9.346,0,0,1-3.069,6.119Zm0,0" transform="translate(3920.048 1209.118)" fill="#fff"/>
    <path id="Tracé_1565" data-name="Tracé 1565" d="M304.5,64h3.4v1.7h-3.4Zm0,0" transform="translate(3669.771 1223.419)" fill="#fff"/>
    <path id="Tracé_1566" data-name="Tracé 1566" d="M352.5,64h8.492v1.7H352.5Zm0,0" transform="translate(3626.867 1223.419)" fill="#fff"/>
    <path id="Tracé_1567" data-name="Tracé 1567" d="M304.5,96h13.588v1.7H304.5Zm0,0" transform="translate(3669.771 1194.816)" fill="#fff"/>
    <path id="Tracé_1568" data-name="Tracé 1568" d="M144.452,368h-1.7v3.4H127.467v1.7h15.286v2.548a2.548,2.548,0,0,1-2.548,2.548H121.523a2.557,2.557,0,0,1-2.208-1.274l-1.471.849a4.264,4.264,0,0,0,3.679,2.123h18.683a4.251,4.251,0,0,0,4.246-4.246Zm0,0" transform="translate(3836.613 951.69)" fill="#fff"/>
    <path id="Tracé_1569" data-name="Tracé 1569" d="M232.5,432h1.7v1.7h-1.7Zm0,0" transform="translate(3734.128 894.484)" fill="#fff"/>
    <path id="Tracé_1570" data-name="Tracé 1570" d="M51.676,22.93v-1.7H49.085A11.041,11.041,0,0,0,38.937,11.083V8.492h-1.7v2.591a11.038,11.038,0,0,0-1.7.265V6.794H49.128V5.1H35.54V4.246A2.548,2.548,0,0,1,38.088,1.7H56.771a2.547,2.547,0,0,1,1.685.637L59.58,1.062A4.241,4.241,0,0,0,56.771,0H38.088a4.251,4.251,0,0,0-4.246,4.246v7.643a11.055,11.055,0,0,0-6.751,9.342H24.5v1.7h2.593A10.991,10.991,0,0,0,37.239,33.081v2.587h1.7V33.081A10.991,10.991,0,0,0,49.083,22.93ZM37.239,29.723v1.66a9.306,9.306,0,0,1-3.4-.98V28.874a4.246,4.246,0,0,1,8.492,0V30.4a9.316,9.316,0,0,1-3.4.983V29.723Zm-1.7-9.342a2.548,2.548,0,1,1,2.548,2.548A2.548,2.548,0,0,1,35.54,20.382Zm8.775,8.662c-.092.085-.19.153-.283.231v-.4A5.945,5.945,0,0,0,40.823,23.6a4.246,4.246,0,1,0-5.471,0,5.945,5.945,0,0,0-3.209,5.272v.405c-.094-.077-.192-.15-.283-.231a9.346,9.346,0,0,1-3.069-6.119h1.653v-1.7H28.789a9.351,9.351,0,0,1,8.449-8.449v1.655h1.7V12.782a9.351,9.351,0,0,1,8.449,8.449H45.731v1.7h1.653a9.346,9.346,0,0,1-3.069,6.119Zm0,0" transform="translate(3920.048 1280.625)" fill="#fff"/>
    <path id="Tracé_1571" data-name="Tracé 1571" d="M292.033,43.889a.849.849,0,0,0,.849-.849V32.849a.849.849,0,0,0-.849-.849H273.349a.849.849,0,0,0-.849.849V43.04a.849.849,0,0,0,.849.849ZM274.2,33.7h16.985v8.492H274.2Zm0,0" transform="translate(3698.374 1252.022)" fill="#fff"/>
    <path id="Tracé_1572" data-name="Tracé 1572" d="M304.5,64h3.4v1.7h-3.4Zm0,0" transform="translate(3669.771 1223.419)" fill="#fff"/>
    <path id="Tracé_1573" data-name="Tracé 1573" d="M352.5,64h8.492v1.7H352.5Zm0,0" transform="translate(3626.867 1223.419)" fill="#fff"/>
    <path id="Tracé_1574" data-name="Tracé 1574" d="M304.5,96h13.588v1.7H304.5Zm0,0" transform="translate(3669.771 1194.816)" fill="#fff"/>
    <path id="Tracé_1576" data-name="Tracé 1576" d="M1.349,332.739H20.033a.849.849,0,0,0,.849-.849V325.1a.849.849,0,0,0-.849-.849H14.088V320h-1.7v4.246H1.349A.849.849,0,0,0,.5,325.1v6.794A.849.849,0,0,0,1.349,332.739Zm.849-6.794H19.183v5.1H2.2Zm0,0" transform="translate(3941.5 994.595)" fill="#fff"/>
    <path id="Tracé_1577" data-name="Tracé 1577" d="M32.5,392h4.246v1.7H32.5Zm0,0" transform="translate(3912.897 930.238)" fill="#fff"/>
    <path id="Tracé_1578" data-name="Tracé 1578" d="M88.5,392h7.643v1.7H88.5Zm0,0" transform="translate(3862.842 930.238)" fill="#fff"/>
  </g>
</svg>
