<svg xmlns="http://www.w3.org/2000/svg" width="59.484" height="69.5" viewBox="0 0 59.484 69.5">
  <g id="Groupe_103" data-name="Groupe 103" transform="translate(0.25 0.25)">
    <path id="Tracé_1054" data-name="Tracé 1054" d="M68.935,54.677H46.625L44.5,58.016l-2.273-3.339H40V48H68.935Zm0,0" transform="translate(-34.435 -41.323)" fill="#619ef5"/>
    <path id="Tracé_1055" data-name="Tracé 1055" d="M68.935,158.677H46.625L44.5,162.016l-2.273-3.339H40V152H68.935Zm0,0" transform="translate(-34.435 -130.855)" fill="#619ef5"/>
    <path id="Tracé_1056" data-name="Tracé 1056" d="M40,262.677H62.31l2.127,3.339,2.273-3.339h2.226V256H40Zm0,0" transform="translate(-34.435 -220.387)" fill="#619ef5"/>
    <path id="Tracé_1057" data-name="Tracé 1057" d="M57.871,16.694H40.064V1.113A1.113,1.113,0,0,0,38.951,0H1.113A1.113,1.113,0,0,0,0,1.113V51.193a1.113,1.113,0,0,0,1.113,1.113H18.919V67.887A1.113,1.113,0,0,0,20.032,69H57.871a1.113,1.113,0,0,0,1.113-1.113V17.806A1.113,1.113,0,0,0,57.871,16.694ZM2.226,50.081V2.226H37.839V50.081ZM56.758,66.774H21.145V52.306H38.951a1.113,1.113,0,0,0,1.113-1.113V18.919H56.758Zm0,0" transform="translate(0)" fill="#fff" stroke="#fff" stroke-width="0.5"/>
  </g>
</svg>
