<svg xmlns="http://www.w3.org/2000/svg" width="55.763" height="50.092" viewBox="0 0 55.763 50.092">
  <g id="Groupe_128" data-name="Groupe 128" transform="translate(-4013 -1281.571)">
    <path id="Tracé_1585" data-name="Tracé 1585" d="M109.449,189.422h1.89v1.89h-1.89Zm0,0" transform="translate(3913.947 1109.161)" fill="#fff"/>
    <path id="Tracé_1586" data-name="Tracé 1586" d="M149.25,189.422h1.89v1.89h-1.89Zm0,0" transform="translate(3877.927 1109.161)" fill="#fff"/>
    <path id="Tracé_1587" data-name="Tracé 1587" d="M189.051,189.422h1.89v1.89h-1.89Zm0,0" transform="translate(3841.907 1109.161)" fill="#fff"/>
    <path id="Tracé_1588" data-name="Tracé 1588" d="M119.4,418.273h4.725v1.89H119.4Zm0,0" transform="translate(3904.939 902.048)" fill="#fff"/>
    <path id="Tracé_1589" data-name="Tracé 1589" d="M208.949,418.273h4.726v1.89h-4.726Zm0,0" transform="translate(3823.898 902.048)" fill="#fff"/>
    <path id="Tracé_1590" data-name="Tracé 1590" d="M298.5,418.273h4.726v1.89H298.5Zm0,0" transform="translate(3742.854 902.048)" fill="#5eb3d1"/>
    <path id="Tracé_1591" data-name="Tracé 1591" d="M388.051,418.273h4.725v1.89h-4.725Zm0,0" transform="translate(3661.81 902.048)" fill="#5eb3d1"/>
    <path id="Tracé_1597" data-name="Tracé 1597" d="M334.913,23.556a13.232,13.232,0,1,1-13.232-13.232A13.232,13.232,0,0,1,334.913,23.556Zm0,0" transform="translate(3733.85 1271.247)" fill="#619ef5"/>
    <path id="Tracé_1598" data-name="Tracé 1598" d="M366.7,42.4a6.685,6.685,0,0,1,1.247.132l-1.4.879,1.007,1.6,3.19-2.008a.946.946,0,0,0,.3-1.3c-.012-.018-.024-.036-.036-.053l-2.323-3.19-1.528,1.112.756,1.032a8.5,8.5,0,0,0-8.178,13.3l1.547-1.086A6.616,6.616,0,0,1,366.7,42.4Zm0,0" transform="translate(3688.826 1245.782)" fill="#bf3d75"/>
    <path id="Tracé_1599" data-name="Tracé 1599" d="M411.528,97.055l-1.547,1.086a6.582,6.582,0,0,1-6.665,10.281l1.4-.88-1.006-1.6-3.19,2.008a.946.946,0,0,0-.3,1.3l.036.053,2.323,3.19,1.528-1.113-.756-1.032a8.506,8.506,0,0,0,8.175-13.3Zm0,0" transform="translate(3650.929 1192.755)" fill="#bf3d75"/>
    <path id="Tracé_1601" data-name="Tracé 1601" d="M470.484,468.023v2.835a2.835,2.835,0,0,1-2.836,2.836h4.726a2.835,2.835,0,0,0,2.835-2.836v-2.835Zm0,0" transform="translate(3589.773 857.023)" fill="#d0d4d6"/>
    <path id="Tracé_1602" data-name="Tracé 1602" d="M3.781,150.465H49.147a3.781,3.781,0,0,0,3.781-3.781v-2.835a.945.945,0,0,0-.945-.945h-1.89V128.727H48.2V142.9h-1.89V129.672h-1.89V142.9H32.246a2.641,2.641,0,0,0-2.374,1.468.761.761,0,0,1-.685.423H23.74a.76.76,0,0,1-.684-.423,2.642,2.642,0,0,0-2.374-1.468H8.506V115.495H26.464V113.6H7.561a.945.945,0,0,0-.945.945V142.9H4.726V114.55a2.835,2.835,0,0,1,2.835-2.836h18.9v-1.89H7.561a4.73,4.73,0,0,0-4.725,4.725V142.9H.945a.946.946,0,0,0-.945.945v2.835A3.781,3.781,0,0,0,3.781,150.465Zm-1.89-5.671H20.681a.759.759,0,0,1,.684.423,2.641,2.641,0,0,0,2.374,1.467h5.448a2.64,2.64,0,0,0,2.374-1.467.76.76,0,0,1,.684-.423H51.037v1.89a1.89,1.89,0,0,1-1.89,1.891H3.781a1.89,1.89,0,0,1-1.89-1.891v-1.89Zm0,0" transform="translate(4013 1181.198)" fill="#fff"/>
    <path id="Tracé_1603" data-name="Tracé 1603" d="M109.449,189.422h1.89v1.89h-1.89Zm0,0" transform="translate(3913.947 1109.161)" fill="#fff"/>
    <path id="Tracé_1604" data-name="Tracé 1604" d="M149.25,189.422h1.89v1.89h-1.89Zm0,0" transform="translate(3877.927 1109.161)" fill="#fff"/>
    <path id="Tracé_1605" data-name="Tracé 1605" d="M189.051,189.422h1.89v1.89h-1.89Zm0,0" transform="translate(3841.907 1109.161)" fill="#fff"/>
    <path id="Tracé_1606" data-name="Tracé 1606" d="M127.407,231.113v-1.89H110.395a.945.945,0,0,0-.945.945v5.671a.945.945,0,0,0,.945.945h22.683v-1.89H111.34v-3.781Zm0,0" transform="translate(3913.947 1073.141)" fill="#fff"/>
    <path id="Tracé_1607" data-name="Tracé 1607" d="M109.449,418.273h6.616v1.89h-6.616Zm0,0" transform="translate(3913.947 902.048)" fill="#fff"/>
    <path id="Tracé_1608" data-name="Tracé 1608" d="M199,418.273h6.616v1.89H199Zm0,0" transform="translate(3832.903 902.048)" fill="#fff"/>
    <path id="Tracé_1609" data-name="Tracé 1609" d="M288.551,418.273h6.616v1.89h-6.616Zm0,0" transform="translate(3751.858 902.048)" fill="#fff"/>
    <path id="Tracé_1610" data-name="Tracé 1610" d="M378.1,418.273h6.616v1.89H378.1Zm0,0" transform="translate(3670.817 902.048)" fill="#fff"/>
    <path id="Tracé_1611" data-name="Tracé 1611" d="M205.616,329.668a.945.945,0,0,0-.945-.945h-4.726a.945.945,0,0,0-.945.945v4.726a.945.945,0,0,0,.945.945h4.726a.945.945,0,0,0,.945-.945Zm-1.89,3.781H200.89v-2.836h2.836Zm0,0" transform="translate(3832.903 983.092)" fill="#fff"/>
    <path id="Tracé_1612" data-name="Tracé 1612" d="M116.065,329.668a.945.945,0,0,0-.945-.945h-4.725a.945.945,0,0,0-.945.945v4.726a.945.945,0,0,0,.945.945h4.725a.945.945,0,0,0,.945-.945Zm-1.89,3.781H111.34v-2.836h2.835Zm0,0" transform="translate(3913.947 983.092)" fill="#fff"/>
    <path id="Tracé_1613" data-name="Tracé 1613" d="M383.772,335.339a.945.945,0,0,0,.945-.945v-4.726a.945.945,0,0,0-.945-.945h-4.726a.946.946,0,0,0-.945.945v4.726a.945.945,0,0,0,.945.945Zm-3.781-4.726h2.836v2.836h-2.836Zm0,0" transform="translate(3670.814 983.092)" fill="#fff"/>
    <path id="Tracé_1614" data-name="Tracé 1614" d="M295.167,329.668a.945.945,0,0,0-.945-.945H289.5a.945.945,0,0,0-.945.945v4.726a.945.945,0,0,0,.945.945h4.726a.945.945,0,0,0,.945-.945Zm-1.89,3.781h-2.836v-2.836h2.836Zm0,0" transform="translate(3751.858 983.092)" fill="#fff"/>
    <path id="Tracé_1616" data-name="Tracé 1616" d="M366.7,42.4a6.685,6.685,0,0,1,1.247.132l-1.4.879,1.007,1.6,3.19-2.008a.946.946,0,0,0,.3-1.3c-.012-.018-.024-.036-.036-.053l-2.323-3.19-1.528,1.112.756,1.032a8.5,8.5,0,0,0-8.178,13.3l1.547-1.086A6.616,6.616,0,0,1,366.7,42.4Zm0,0" transform="translate(3688.826 1245.782)" fill="#fff"/>
    <path id="Tracé_1617" data-name="Tracé 1617" d="M409.981,98.144a6.582,6.582,0,0,1-6.665,10.281l1.4-.88-1.006-1.6-3.19,2.008a.946.946,0,0,0-.3,1.3l.036.053,2.323,3.19,1.528-1.113-.756-1.032a8.506,8.506,0,0,0,8.175-13.3Zm0,0" transform="translate(3650.929 1192.751)" fill="#fff"/>
  </g>
</svg>
