<svg xmlns="http://www.w3.org/2000/svg" width="50.955" height="50.105" viewBox="0 0 50.955 50.105">
  <g id="Groupe_124" data-name="Groupe 124" transform="translate(-4090 -1280.625)">
    <path id="Tracé_1622" data-name="Tracé 1622" d="M320.492,336.492V329.7a1.7,1.7,0,1,0-3.4,0v9.342l-2.02-2.02A1.8,1.8,0,0,0,312,338.294v.08a1.8,1.8,0,0,0,.434,1.172l4.662,5.439h13.588v-8.492a1.7,1.7,0,1,0-3.4,0,1.7,1.7,0,0,0-3.4,0,1.7,1.7,0,1,0-3.4,0Z" transform="translate(3809.422 985.746)" fill="#619ef5"/>
    <path id="Tracé_1623" data-name="Tracé 1623" d="M18.265,49.776l.566-1.6a1.7,1.7,0,0,1-1.132-1.6V19.4a1.7,1.7,0,0,1,1.7-1.7H55.065a1.7,1.7,0,0,1,1.6,1.132l1.6-.566A3.4,3.4,0,0,0,55.065,16H19.4A3.4,3.4,0,0,0,16,19.4V46.573a3.4,3.4,0,0,0,2.265,3.2Z" transform="translate(4074 1264.625)" fill="#fff"/>
    <path id="Tracé_1624" data-name="Tracé 1624" d="M98.462,60.246V59.4a3.4,3.4,0,0,0-3.4-3.4H59.4A3.4,3.4,0,0,0,56,59.4V86.573a3.4,3.4,0,0,0,2.265,3.2l.566-1.6a1.7,1.7,0,0,1-1.132-1.6V59.4a1.7,1.7,0,0,1,1.7-1.7H95.065a1.7,1.7,0,0,1,1.7,1.7v.849Z" transform="translate(4038.246 1228.872)" fill="#fff"/>
    <path id="Tracé_1625" data-name="Tracé 1625" d="M131.419,96.249a.849.849,0,0,0-.6-.249H99.4A3.4,3.4,0,0,0,96,99.4v27.176a3.4,3.4,0,0,0,3.4,3.4h16.985v-1.7H99.4a1.7,1.7,0,0,1-1.7-1.7V99.4a1.7,1.7,0,0,1,1.7-1.7H129.97v3.4a3.4,3.4,0,0,0,3.4,3.4h3.4v21.231h1.7v-22.08a.849.849,0,0,0-.249-.6Zm.249,4.847V98.9l3.894,3.894h-2.2A1.7,1.7,0,0,1,131.668,101.1Z" transform="translate(4002.492 1193.118)" fill="#fff"/>
    <path id="Tracé_1626" data-name="Tracé 1626" d="M128,128h1.7v1.7H128Z" transform="translate(3973.889 1164.515)" fill="#fff"/>
    <path id="Tracé_1627" data-name="Tracé 1627" d="M160,128h1.7v1.7H160Z" transform="translate(3945.286 1164.515)" fill="#fff"/>
    <path id="Tracé_1628" data-name="Tracé 1628" d="M192,128h1.7v1.7H192Z" transform="translate(3916.684 1164.515)" fill="#fff"/>
    <path id="Tracé_1629" data-name="Tracé 1629" d="M128,160h28.874v1.7H128Z" transform="translate(3973.889 1135.912)" fill="#fff"/>
    <path id="Tracé_1630" data-name="Tracé 1630" d="M224,199.643A7.643,7.643,0,1,0,231.643,192,7.643,7.643,0,0,0,224,199.643Zm13.588,0a5.945,5.945,0,1,1-5.945-5.945,5.945,5.945,0,0,1,5.945,5.945Z" transform="translate(3888.08 1107.309)" fill="#fff"/>
    <path id="Tracé_1631" data-name="Tracé 1631" d="M264.423,224.115a.849.849,0,0,0-.423.734v6.794a.849.849,0,0,0,1.271.737l5.945-3.4a.849.849,0,0,0,0-1.475l-5.945-3.4A.849.849,0,0,0,264.423,224.115Zm1.276,2.2,3.384,1.934L265.7,230.18Z" transform="translate(3852.327 1078.706)" fill="#fff"/>
    <path id="Tracé_1633" data-name="Tracé 1633" d="M416,352h3.4v1.7H416Z" transform="translate(3716.462 964.293)" fill="#fff"/>
    <path id="Tracé_1634" data-name="Tracé 1634" d="M149.945,341.1a2.552,2.552,0,0,0,2.4-1.7h12.035v-1.7H152.346a2.548,2.548,0,0,0-4.8,0H144v1.7h3.543A2.552,2.552,0,0,0,149.945,341.1Zm0-3.4a.849.849,0,1,1-.849.849A.849.849,0,0,1,149.945,337.707Z" transform="translate(3959.588 978.586)" fill="#fff"/>
  </g>
</svg>
