<svg xmlns="http://www.w3.org/2000/svg" width="50.653" height="50.653" viewBox="0 0 50.653 50.653">
  <g id="Groupe_127" data-name="Groupe 127" transform="translate(-3752 -1280.625)">
    <path id="Tracé_1440" data-name="Tracé 1440" d="M137.327,0H116.085A4.09,4.09,0,0,0,112,4.085V9.8h1.634V8.17h1.634V9.8H116.9V8.17H136.51v9.8h1.634V8.17h1.634v7.353h1.634V4.085A4.09,4.09,0,0,0,137.327,0ZM113.634,6.536V4.085a2.454,2.454,0,0,1,2.451-2.451h21.242a2.454,2.454,0,0,1,2.451,2.451V6.536Zm0,0" transform="translate(3651.438 1280.625)" fill="#fff"/>
    <path id="Tracé_1441" data-name="Tracé 1441" d="M139.777,301.072h-1.634v-9.8H136.51v9.8H116.9V288h-1.634v13.072h-1.634V288H112v17.157a4.09,4.09,0,0,0,4.085,4.085h21.242a4.09,4.09,0,0,0,4.085-4.085V293.719h-1.634Zm-2.451,6.536H116.085a2.454,2.454,0,0,1-2.451-2.451v-2.451h26.143v2.451A2.454,2.454,0,0,1,137.327,307.608Zm0,0" transform="translate(3651.438 1022.037)" fill="#fff"/>
    <path id="Tracé_1442" data-name="Tracé 1442" d="M200,448h11.438v1.634H200Zm0,0" transform="translate(3572.425 878.376)" fill="#fff"/>
    <path id="Tracé_1443" data-name="Tracé 1443" d="M224,340.9v1.634h9.8V336h-3.268v1.634h1.634V340.9Zm0,0" transform="translate(3550.875 978.939)" fill="#fff"/>
    <path id="Tracé_1444" data-name="Tracé 1444" d="M176,342.536h3.268V340.9h-1.634v-3.268h8.17V336H176Zm0,0" transform="translate(3593.974 978.939)" fill="#fff"/>
    <path id="Tracé_1445" data-name="Tracé 1445" d="M216,112h12.255v1.634H216Zm0,0" transform="translate(3558.059 1180.063)" fill="#fff"/>
    <path id="Tracé_1446" data-name="Tracé 1446" d="M216,144h9.8v1.634H216Zm0,0" transform="translate(3558.059 1151.331)" fill="#fff"/>
    <path id="Tracé_1447" data-name="Tracé 1447" d="M309.242,156.924v-4.607l-2.062-.414a8.859,8.859,0,0,0-.587-1.414l1.168-1.751-3.257-3.257-1.751,1.168a8.989,8.989,0,0,0-1.414-.587L300.924,144h-4.607l-.414,2.062a8.855,8.855,0,0,0-1.414.587l-1.751-1.168-3.257,3.257,1.168,1.751a8.991,8.991,0,0,0-.587,1.414l-2.062.414v4.607l2.062.414a8.851,8.851,0,0,0,.587,1.414l-1.168,1.751,3.257,3.257,1.751-1.168a8.995,8.995,0,0,0,1.414.587l.414,2.062h4.607l.414-2.062a8.859,8.859,0,0,0,1.414-.587l1.751,1.168,3.257-3.257-1.168-1.751a9,9,0,0,0,.587-1.414Zm-10.621,2.6a4.9,4.9,0,1,1,4.9-4.9A4.9,4.9,0,0,1,298.621,159.523Zm0,0" transform="translate(3493.411 1151.331)" fill="#619ef5"/>
    <path id="Tracé_1448" data-name="Tracé 1448" d="M216,176h5.719v1.634H216Zm0,0" transform="translate(3558.059 1122.599)" fill="#fff"/>
    <path id="Tracé_1449" data-name="Tracé 1449" d="M216,208h5.719v1.634H216Zm0,0" transform="translate(3558.059 1093.867)" fill="#fff"/>
    <path id="Tracé_1450" data-name="Tracé 1450" d="M216,240h5.719v1.634H216Zm0,0" transform="translate(3558.059 1065.135)" fill="#fff"/>
    <path id="Tracé_1451" data-name="Tracé 1451" d="M216,272h5.719v1.634H216Zm0,0" transform="translate(3558.059 1036.403)" fill="#fff"/>
    <path id="Tracé_1452" data-name="Tracé 1452" d="M370.451,228.9a2.451,2.451,0,1,1,2.451-2.451A2.454,2.454,0,0,1,370.451,228.9Zm0-3.268a.817.817,0,1,0,.817.817A.818.818,0,0,0,370.451,225.634Zm0,0" transform="translate(3421.581 1079.501)" fill="#fff"/>
    <path id="Tracé_1453" data-name="Tracé 1453" d="M341.719,224.6a5.714,5.714,0,0,1-4.658-9.03l1.331.948a4.08,4.08,0,0,0,5.69,5.69l.948,1.331A5.683,5.683,0,0,1,341.719,224.6Zm0,0" transform="translate(3450.313 1087.066)" fill="#fff"/>
    <path id="Tracé_1454" data-name="Tracé 1454" d="M367.543,201.03l-1.331-.948a4.08,4.08,0,0,0-5.69-5.69l-.948-1.331a5.714,5.714,0,0,1,7.969,7.969Zm0,0" transform="translate(3429.147 1108.233)" fill="#fff"/>
    <path id="Tracé_1455" data-name="Tracé 1455" d="M22.876,118.876l-5.7-3.268H2.451A2.454,2.454,0,0,1,0,113.157V98.451A2.454,2.454,0,0,1,2.451,96H20.425a2.454,2.454,0,0,1,2.451,2.451Zm0,0" transform="translate(3752 1194.429)" fill="#619ef5"/>
    <path id="Tracé_1456" data-name="Tracé 1456" d="M176,128h1.634v1.634H176Zm0,0" transform="translate(3593.974 1165.697)" fill="#fff"/>
    <path id="Tracé_1457" data-name="Tracé 1457" d="M77.31,133.719H74.859a1.225,1.225,0,0,1,0-2.451H77.31a1.227,1.227,0,0,1,1.225,1.226H80.17a2.862,2.862,0,0,0-2.859-2.859H76.9V128H75.268v1.634h-.408a2.859,2.859,0,1,0,0,5.719H77.31a1.225,1.225,0,0,1,0,2.451H74.859a1.227,1.227,0,0,1-1.225-1.225H72a2.862,2.862,0,0,0,2.859,2.859h.408v1.634H76.9v-1.634h.409a2.859,2.859,0,0,0,0-5.719Zm0,0" transform="translate(3687.353 1165.697)" fill="#fff"/>
    <path id="Tracé_1458" data-name="Tracé 1458" d="M32,128h1.634v1.634H32Zm0,0" transform="translate(3723.268 1165.697)" fill="#fff"/>
    <path id="Tracé_1459" data-name="Tracé 1459" d="M32,240h1.634v1.634H32Zm0,0" transform="translate(3723.268 1065.135)" fill="#fff"/>
    <path id="Tracé_1460" data-name="Tracé 1460" d="M176,240h1.634v1.634H176Zm0,0" transform="translate(3593.974 1065.135)" fill="#fff"/>
  </g>
</svg>
