<svg xmlns="http://www.w3.org/2000/svg" width="51.375" height="51.375" viewBox="0 0 51.375 51.375">
  <g id="Groupe_126" data-name="Groupe 126" transform="translate(-4223 -1280.625)">
    <path id="Tracé_1657" data-name="Tracé 1657" d="M99.859,39.8h1.712v1.712H99.859Zm0,0" transform="translate(4131.703 1244.25)" fill="#619ef5"/>
    <path id="Tracé_1658" data-name="Tracé 1658" d="M139.66,39.8h1.712v1.712H139.66Zm0,0" transform="translate(4095.328 1244.25)" fill="#619ef5"/>
    <path id="Tracé_1659" data-name="Tracé 1659" d="M179.457,39.8h1.713v1.712h-1.713Zm0,0" transform="translate(4058.955 1244.25)" fill="#619ef5"/>
    <path id="Tracé_1660" data-name="Tracé 1660" d="M99.859,79.6h34.25V81.31H99.859Zm0,0" transform="translate(4131.703 1207.877)" fill="#619ef5"/>
    <path id="Tracé_1661" data-name="Tracé 1661" d="M115.272,119.4H100.716a.856.856,0,0,0-.856.856v11.987a.856.856,0,0,0,.856.856h14.556a.857.857,0,0,0,.857-.856V120.259A.857.857,0,0,0,115.272,119.4Zm-.856,1.712v2.569H101.572v-2.569ZM101.572,125.4H105v5.994h-3.425Zm5.137,5.994V125.4h7.706v5.994Zm0,0" transform="translate(4131.703 1171.498)" fill="#619ef5"/>
    <path id="Tracé_1662" data-name="Tracé 1662" d="M324.221,119.4H309.665a.856.856,0,0,0-.856.856v11.987a.856.856,0,0,0,.856.856h14.556a.856.856,0,0,0,.856-.856V120.259A.856.856,0,0,0,324.221,119.4Zm-.857,1.712v2.569H310.521v-2.569ZM310.521,125.4h7.706v5.994h-7.706Zm9.419,5.994V125.4h3.425v5.994Zm0,0" transform="translate(3940.735 1171.498)" fill="#619ef5"/>
    <path id="Tracé_1663" data-name="Tracé 1663" d="M115.272,298.5H100.716a.856.856,0,0,0-.856.856v7.706h1.712v-2.569h12.844v2.569h1.713v-7.706A.857.857,0,0,0,115.272,298.5Zm-13.7,4.281v-2.569h12.844v2.569Zm0,0" transform="translate(4131.703 1007.813)" fill="#619ef5"/>
    <path id="Tracé_1664" data-name="Tracé 1664" d="M324.221,298.5H309.665a.856.856,0,0,0-.856.856v7.706h1.713v-6.85h3.425v6.85h1.713v-6.85h7.706v6.85h1.712v-7.706A.856.856,0,0,0,324.221,298.5Zm0,0" transform="translate(3940.735 1007.813)" fill="#619ef5"/>
    <path id="Tracé_1667" data-name="Tracé 1667" d="M48.309,79.6V81.31a1.712,1.712,0,0,1,1.712,1.713V108.71H2.072V83.023A1.712,1.712,0,0,1,3.784,81.31V79.6A3.425,3.425,0,0,0,.359,83.023v29.112a3.425,3.425,0,0,0,3.425,3.425h16.83l-2.055,6.85H16.628v1.713H35.465V122.41H33.534l-2.055-6.85h16.83a3.425,3.425,0,0,0,3.425-3.425V83.023A3.425,3.425,0,0,0,48.309,79.6ZM31.746,122.41h-11.4l2.055-6.85h7.288Zm18.276-10.275a1.712,1.712,0,0,1-1.712,1.712H3.784a1.712,1.712,0,0,1-1.713-1.712v-1.713h47.95Zm0,0" transform="translate(4222.641 1207.877)" fill="#fff"/>
    <path id="Tracé_1668" data-name="Tracé 1668" d="M101.159,34.25V3.425A3.425,3.425,0,0,0,97.733,0H63.484a3.425,3.425,0,0,0-3.425,3.425V34.25h1.713V3.425a1.712,1.712,0,0,1,1.712-1.713h34.25a1.712,1.712,0,0,1,1.713,1.713V34.25Zm0,0" transform="translate(4168.079 1280.625)" fill="#fff"/>
    <path id="Tracé_1669" data-name="Tracé 1669" d="M99.859,39.8h1.712v1.712H99.859Zm0,0" transform="translate(4131.703 1244.25)" fill="#fff"/>
    <path id="Tracé_1670" data-name="Tracé 1670" d="M139.66,39.8h1.712v1.712H139.66Zm0,0" transform="translate(4095.328 1244.25)" fill="#fff"/>
    <path id="Tracé_1671" data-name="Tracé 1671" d="M179.457,39.8h1.713v1.712h-1.713Zm0,0" transform="translate(4058.955 1244.25)" fill="#fff"/>
    <path id="Tracé_1672" data-name="Tracé 1672" d="M99.859,79.6h34.25V81.31H99.859Zm0,0" transform="translate(4131.703 1207.877)" fill="#fff"/>
    <path id="Tracé_1673" data-name="Tracé 1673" d="M116.128,120.259a.857.857,0,0,0-.857-.856H100.716a.856.856,0,0,0-.856.856v11.987a.856.856,0,0,0,.856.856h14.556a.857.857,0,0,0,.857-.856Z" transform="translate(4131.703 1171.498)" fill="#619ef5"/>
    <path id="Tracé_1674" data-name="Tracé 1674" d="M325.077,120.259a.856.856,0,0,0-.856-.856H309.665a.856.856,0,0,0-.856.856v11.987a.857.857,0,0,0,.856.856h14.556a.856.856,0,0,0,.856-.856Z" transform="translate(3940.735 1171.498)" fill="#619ef5"/>
    <path id="Tracé_1675" data-name="Tracé 1675" d="M116.128,307.063v-7.706a.857.857,0,0,0-.857-.856H100.716a.856.856,0,0,0-.856.856v7.706h1.712v-2.569h12.844v2.569Zm-14.556-4.281v-2.569h12.844v2.569Zm0,0" transform="translate(4131.703 1007.813)" fill="#fff"/>
    <path id="Tracé_1676" data-name="Tracé 1676" d="M325.077,307.063v-7.706a.856.856,0,0,0-.856-.856H309.665a.856.856,0,0,0-.856.856v7.706h1.713v-6.85h3.425v6.85h1.712v-6.85h7.706v6.85Zm0,0" transform="translate(3940.735 1007.813)" fill="#fff"/>
  </g>
</svg>
