<svg xmlns="http://www.w3.org/2000/svg" width="28.874" height="50.954" viewBox="0 0 28.874 50.954">
  <g id="Groupe_117" data-name="Groupe 117" transform="translate(-3818.683 -1280.324)">
    <path id="Tracé_1469" data-name="Tracé 1469" d="M120,112h3.4v3.4H120Zm0,0" transform="translate(3711.421 1180.213)" fill="#619ef5"/>
    <path id="Tracé_1470" data-name="Tracé 1470" d="M56,112h3.4v3.4H56Zm0,0" transform="translate(3768.627 1180.213)" fill="#619ef5"/>
    <path id="Tracé_1471" data-name="Tracé 1471" d="M184,112h3.4v3.4H184Zm0,0" transform="translate(3654.215 1180.213)" fill="#619ef5"/>
    <path id="Tracé_1472" data-name="Tracé 1472" d="M120,176h3.4v3.4H120Zm0,0" transform="translate(3711.421 1123.007)" fill="#619ef5"/>
    <path id="Tracé_1473" data-name="Tracé 1473" d="M56,176h3.4v3.4H56Zm0,0" transform="translate(3768.627 1123.007)" fill="#619ef5"/>
    <path id="Tracé_1474" data-name="Tracé 1474" d="M184,176h3.4v3.4H184Zm0,0" transform="translate(3654.215 1123.007)" fill="#619ef5"/>
    <path id="Tracé_1475" data-name="Tracé 1475" d="M120,240h3.4v3.4H120Zm0,0" transform="translate(3711.421 1065.801)" fill="#619ef5"/>
    <path id="Tracé_1476" data-name="Tracé 1476" d="M56,240h3.4v3.4H56Zm0,0" transform="translate(3768.627 1065.801)" fill="#619ef5"/>
    <path id="Tracé_1477" data-name="Tracé 1477" d="M184,240h3.4v3.4H184Zm0,0" transform="translate(3654.215 1065.801)" fill="#619ef5"/>
    <path id="Tracé_1478" data-name="Tracé 1478" d="M120,304h3.4v3.4H120Zm0,0" transform="translate(3711.421 1008.595)" fill="#619ef5"/>
    <path id="Tracé_1479" data-name="Tracé 1479" d="M56,304h3.4v3.4H56Zm0,0" transform="translate(3768.627 1008.595)" fill="#619ef5"/>
    <path id="Tracé_1480" data-name="Tracé 1480" d="M184,304h3.4v3.4H184Zm0,0" transform="translate(3654.215 1008.595)" fill="#619ef5"/>
    <path id="Tracé_1481" data-name="Tracé 1481" d="M4.246,50.955H24.628a4.251,4.251,0,0,0,4.246-4.246V4.246A4.251,4.251,0,0,0,24.628,0H4.246A4.251,4.251,0,0,0,0,4.246V46.708A4.251,4.251,0,0,0,4.246,50.955ZM1.7,4.246A2.548,2.548,0,0,1,4.246,1.7H24.628a2.548,2.548,0,0,1,2.548,2.548V6.794H1.7Zm0,4.246H27.176v33.97H1.7Zm0,35.668H27.176v2.548a2.548,2.548,0,0,1-2.548,2.548H4.246A2.548,2.548,0,0,1,1.7,46.708Zm0,0" transform="translate(3818.683 1280.324)" fill="#fff"/>
    <path id="Tracé_1482" data-name="Tracé 1482" d="M96,32h8.492v1.7H96Zm0,0" transform="translate(3732.874 1251.721)" fill="#fff"/>
    <path id="Tracé_1483" data-name="Tracé 1483" d="M64,32h1.7v1.7H64Zm0,0" transform="translate(3761.477 1251.721)" fill="#fff"/>
    <path id="Tracé_1484" data-name="Tracé 1484" d="M112,432h5.1v1.7H112Zm0,0" transform="translate(3718.572 894.183)" fill="#fff"/>
  </g>
</svg>
