<svg xmlns="http://www.w3.org/2000/svg" width="75.914" height="76.099" viewBox="0 0 75.914 76.099">
  <g id="help" transform="translate(0)">
    <path id="Tracé_975" data-name="Tracé 975" d="M145.413,58.161l2.965,5.136-4.249,2.454a9.516,9.516,0,0,1,0,4.783l4.249,2.454-2.965,5.136-4.252-2.455a10.355,10.355,0,0,1-4.14,2.369V82.97H131.09V78.038a10.34,10.34,0,0,1-4.138-2.369L122.7,78.124l-2.965-5.136,4.249-2.454a9.516,9.516,0,0,1,0-4.783L119.733,63.3l2.965-5.136,4.254,2.455a10.34,10.34,0,0,1,4.138-2.369V52.871h5.931v5.376a10.355,10.355,0,0,1,4.14,2.369ZM138.5,68.143a4.448,4.448,0,1,0-4.448,4.448A4.453,4.453,0,0,0,138.5,68.143Z" transform="translate(-100.992 -41.825)" fill="#619ef5"/>
    <path id="Tracé_980" data-name="Tracé 980" d="M72.089,24.613H66.751V4.448A4.453,4.453,0,0,0,62.3,0H5.071A4.453,4.453,0,0,0,.623,4.448v42.4A4.453,4.453,0,0,0,5.071,51.3h8.3v9.571a1.483,1.483,0,0,0,2.369,1.189l6.527-4.866v5.375a4.453,4.453,0,0,0,4.448,4.448h27.14l10.46,8.737a1.483,1.483,0,0,0,2.433-1.138v-7.6h5.338a4.453,4.453,0,0,0,4.448-4.448V29.06A4.453,4.453,0,0,0,72.089,24.613ZM14.857,48.336H5.071a1.484,1.484,0,0,1-1.483-1.483V4.448A1.484,1.484,0,0,1,5.071,2.965H62.3a1.484,1.484,0,0,1,1.483,1.483v42.4A1.484,1.484,0,0,1,62.3,48.336H29.684a1.481,1.481,0,0,0-.886.294L16.34,57.917v-8.1A1.483,1.483,0,0,0,14.857,48.336ZM73.571,62.569a1.484,1.484,0,0,1-1.483,1.483h-6.82a1.483,1.483,0,0,0-1.483,1.483v5.911L55.346,64.4a1.483,1.483,0,0,0-.95-.345H26.718a1.484,1.484,0,0,1-1.483-1.483V54.984l4.94-3.683H62.3a4.453,4.453,0,0,0,4.448-4.448V27.578h5.338a1.484,1.484,0,0,1,1.483,1.483Z" transform="translate(-0.623)" fill="#fff"/>
  </g>
</svg>
