<svg xmlns="http://www.w3.org/2000/svg" width="32.225" height="32.225" viewBox="0 0 32.225 32.225">
  <path id="_002-twitter" data-name="002-twitter" d="M16.113,0A16.113,16.113,0,1,0,32.225,16.113,16.114,16.114,0,0,0,16.113,0Zm2.079,25.211c-3.965.068-5.467-2.824-5.467-4.861V14.4H10.882V12.053a5.569,5.569,0,0,0,3.581-4.905.144.144,0,0,1,.131-.136H17.26v4.636H20.9V14.4H17.248V20.07A1.6,1.6,0,0,0,19,21.864a4.283,4.283,0,0,0,1.468-.314l.875,2.6A4.845,4.845,0,0,1,18.191,25.211Zm0,0" fill="#fff"/>
</svg>
