<svg xmlns="http://www.w3.org/2000/svg" width="32.225" height="32.225" viewBox="0 0 32.225 32.225">
  <path id="_010-linkedin" data-name="010-linkedin" d="M16.113,0A16.113,16.113,0,1,0,32.225,16.113,16.114,16.114,0,0,0,16.113,0ZM11.43,24.358H7.506V12.552H11.43ZM9.469,10.94H9.443A2.045,2.045,0,1,1,9.495,6.86a2.046,2.046,0,1,1-.026,4.079ZM25.58,24.358H21.657V18.042c0-1.587-.568-2.67-1.988-2.67a2.148,2.148,0,0,0-2.013,1.435,2.687,2.687,0,0,0-.129.958v6.593H13.6s.051-10.7,0-11.806h3.924v1.672a3.9,3.9,0,0,1,3.536-1.949c2.582,0,4.518,1.687,4.518,5.313Zm0,0" fill="#fff"/>
</svg>
