<svg xmlns="http://www.w3.org/2000/svg" width="12" height="10" viewBox="0 0 12 10">
  <path id="arrow-down-2.3" d="M10.869,16.631c-.058-.056-.306-.27-.51-.469a21.69,21.69,0,0,1-4.024-5.8A4.617,4.617,0,0,1,6,9.188a1.933,1.933,0,0,1,.218-.9,1.874,1.874,0,0,1,.9-.795,9.841,9.841,0,0,1,1.064-.256A23.978,23.978,0,0,1,11.992,7a27.724,27.724,0,0,1,3.689.213,8.495,8.495,0,0,1,1.327.341A1.785,1.785,0,0,1,18,9.132v.057a4.878,4.878,0,0,1-.409,1.321,21.691,21.691,0,0,1-3.966,5.668,5.657,5.657,0,0,1-.554.482A1.783,1.783,0,0,1,12.007,17,1.875,1.875,0,0,1,10.869,16.631Z" transform="translate(-6 -7)" fill="#fff"/>
</svg>
