<svg xmlns="http://www.w3.org/2000/svg" width="18.648" height="18.648" viewBox="0 0 18.648 18.648">
  <path id="call.1" d="M17.074,13.543a2.125,2.125,0,0,0-1.56.41c-.449.262-1.3.955-1.793.777A11.125,11.125,0,0,1,7.834,8.987c-.18-.5.51-1.36.77-1.814A2.178,2.178,0,0,0,9.011,5.6,12.779,12.779,0,0,0,6.839,2.574,1.783,1.783,0,0,0,5.749,2c-1.4-.06-2.963,1.808-3.237,2.255-.687.953-.683,2.221.012,3.758,1.674,4.129,8.005,10.361,12.15,12.1a5.008,5.008,0,0,0,2.093.537,2.722,2.722,0,0,0,1.633-.512c.355-.2,2.3-1.846,2.248-3.283a1.81,1.81,0,0,0-.567-1.088A12.871,12.871,0,0,0,17.074,13.543Z" transform="translate(-2 -2)" fill="#619ef5"/>
</svg>
