<svg xmlns="http://www.w3.org/2000/svg" width="29.162" height="29.162" viewBox="0 0 29.162 29.162">
  <path id="close-square.4" d="M10.267,2H22.909c4.943,0,8.253,3.47,8.253,8.632V22.545c0,5.147-3.31,8.616-8.253,8.616H10.267C5.324,31.161,2,27.692,2,22.545V10.631C2,5.469,5.324,2,10.267,2Zm10.7,18.955a1.265,1.265,0,0,0,0-1.792l-2.6-2.6,2.6-2.6a1.278,1.278,0,0,0-1.808-1.807l-2.581,2.594-2.6-2.594a1.278,1.278,0,0,0-1.808,1.807l2.6,2.6-2.6,2.581a1.283,1.283,0,0,0,0,1.807,1.3,1.3,0,0,0,.9.381,1.271,1.271,0,0,0,.9-.381l2.6-2.579,2.6,2.579a1.2,1.2,0,0,0,.889.381A1.271,1.271,0,0,0,20.969,20.954Z" transform="translate(-2 -1.999)" fill="#fff" fill-rule="evenodd"/>
</svg>
