<svg xmlns="http://www.w3.org/2000/svg" width="158.5" height="34.588" viewBox="0 0 158.5 34.588">
  <g id="Groupe_43" data-name="Groupe 43" transform="translate(444.124 245.862)">
    <g id="Groupe_76" data-name="Groupe 76" transform="translate(-444.124 -245.862)">
      <g id="Entertainment" transform="translate(0 27.588)">
        <g id="Groupe_74" data-name="Groupe 74">
          <text id="It_Solutions" data-name="It Solutions" transform="translate(0 6)" fill="#64a0f2" font-size="8" font-family="Mont-Regular, Mont" letter-spacing="0.029em" style="isolation: isolate"><tspan x="0" y="0">It Solutions</tspan></text>
        </g>
      </g>
      <g id="Groupe_75" data-name="Groupe 75" transform="translate(1.223)">
        <path id="Tracé_923" data-name="Tracé 923" d="M-173.608-212.365a3.848,3.848,0,0,0-3.892,3.093h7.948A4.037,4.037,0,0,0-173.608-212.365Z" transform="translate(254.84 222.235)" fill="none"/>
        <path id="Tracé_924" data-name="Tracé 924" d="M-341.278-211.145a4.364,4.364,0,0,0-4.47,4.5,4.364,4.364,0,0,0,4.47,4.5,4.356,4.356,0,0,0,4.465-4.5A4.356,4.356,0,0,0-341.278-211.145Z" transform="translate(373.512 221.375)" fill="none"/>
        <path id="Tracé_925" data-name="Tracé 925" d="M-27.289-222.658a7.687,7.687,0,0,0-7.885,7.913,7.718,7.718,0,0,0,7.885,7.912,7.7,7.7,0,0,0,7.885-7.912A7.7,7.7,0,0,0-27.289-222.658Z" transform="translate(154.451 229.495)" fill="none"/>
        <path id="Tracé_926" data-name="Tracé 926" d="M-429-223.9a6.352,6.352,0,0,1-6.318-6.675A6.394,6.394,0,0,1-429-237.3a5.843,5.843,0,0,1,5.677,4.079h4.611A10.257,10.257,0,0,0-429-241.686a10.819,10.819,0,0,0-10.98,11.115A10.807,10.807,0,0,0-429-219.506h0a10.311,10.311,0,0,0,10.355-8.772h-4.637A5.761,5.761,0,0,1-429-223.9Z" transform="translate(439.975 242.916)" fill="#fff"/>
        <path id="Tracé_927" data-name="Tracé 927" d="M-347.011-223.2a8,8,0,0,0-5.389-2.006,8.4,8.4,0,0,0-8.6,8.64,8.434,8.434,0,0,0,8.6,8.69,7.971,7.971,0,0,0,5.315-1.956l.381,1.468h3.477v-16.4h-3.31Zm-5.027,11.13a4.364,4.364,0,0,1-4.47-4.5,4.364,4.364,0,0,1,4.47-4.5,4.356,4.356,0,0,1,4.465,4.5A4.356,4.356,0,0,1-352.039-212.074Z" transform="translate(384.273 231.295)" fill="#fff"/>
        <path id="Tracé_928" data-name="Tracé 928" d="M-267.553-224.959a6.2,6.2,0,0,0-4.975,2.5h-.188a5.321,5.321,0,0,0-4.676-2.5,6.306,6.306,0,0,0-4.893,2.423l-.831-2.034h-3.1v16.4h3.925l-.22-1.647a.566.566,0,0,1,.179-.488l.995-.938-.595-2.256a3.121,3.121,0,0,1,.357-2.436,1.261,1.261,0,0,0-.94-.409,1.212,1.212,0,0,0-1.235,1.174v4.113a.6.6,0,0,1-.625.584h0a.6.6,0,0,1-.622-.587v-4.11a2.421,2.421,0,0,1,2.486-2.347,2.529,2.529,0,0,1,1.737.687,3.557,3.557,0,0,1,.674-.427,2.271,2.271,0,0,0,.588-.4l1.387-1.313a3.469,3.469,0,0,1,2.332-.893,3.29,3.29,0,0,1,2.7,1.362l1.232,1.739a1.013,1.013,0,0,0,.83.419.972.972,0,0,0,1-.942v-3.165a1.649,1.649,0,0,1,.089-.521l-1.087-.769-.037-.027a.565.565,0,0,1-.087-.794.646.646,0,0,1,.869-.117l1.08.765a1.931,1.931,0,0,1,1.032-.3h3.772a.6.6,0,0,1,.622.587,3.025,3.025,0,0,1-2.528,2.874v3.194a8.292,8.292,0,0,1-2.517,5.934l-.192,1.45h7.245v-10.286C-261.776-222.3-264.159-224.959-267.553-224.959Z" transform="translate(331.521 231.118)" fill="#fff"/>
        <path id="Tracé_929" data-name="Tracé 929" d="M-184.658-225.213a8.389,8.389,0,0,0-8.508,8.666,8.418,8.418,0,0,0,8.508,8.665,8.4,8.4,0,0,0,8.14-5.855h-4.661a3.892,3.892,0,0,1-3.479,1.9,3.824,3.824,0,0,1-4.008-3.472h12.414a10.24,10.24,0,0,0,.085-1.3h0A8.352,8.352,0,0,0-184.658-225.213Zm-3.892,6.879a3.848,3.848,0,0,1,3.892-3.093,4.037,4.037,0,0,1,4.057,3.093Z" transform="translate(265.89 231.297)" fill="#fff"/>
        <rect id="Rectangle_20" data-name="Rectangle 20" width="4.435" height="22.314" transform="translate(92.878 0.637)" fill="#fff"/>
        <path id="Tracé_930" data-name="Tracé 930" d="M-89.285-230.663c-3.22-.693-6.355-1.352-6.355-4.772,0-2.98,2.4-4.927,6.121-4.927,3.557,0,5.9,2.071,5.9,5.225H-83c0-3.506-2.594-5.829-6.512-5.829-4.08,0-6.743,2.194-6.743,5.544,0,3.872,3.508,4.644,6.816,5.352,3.277.72,6.366,1.379,6.366,4.951,0,3.141-2.557,5.3-6.284,5.3-4.083,0-6.753-2.309-6.753-5.816h-.623c0,3.866,2.943,6.427,7.378,6.427,4.061,0,6.907-2.387,6.907-5.911C-82.448-229.151-85.917-229.925-89.285-230.663Z" transform="translate(197.871 242.409)" fill="#fff"/>
        <path id="Tracé_931" data-name="Tracé 931" d="M-28.757-224.689a8.292,8.292,0,0,0-8.5,8.511,8.31,8.31,0,0,0,8.5,8.511,8.294,8.294,0,0,0,8.5-8.511A8.3,8.3,0,0,0-28.757-224.689Zm0,16.424a7.718,7.718,0,0,1-7.885-7.912,7.687,7.687,0,0,1,7.885-7.913,7.7,7.7,0,0,1,7.885,7.913A7.7,7.7,0,0,1-28.757-208.265Z" transform="translate(155.919 230.928)" fill="#fff"/>
        <path id="Tracé_932" data-name="Tracé 932" d="M43.821-223.5c-2.649,0-4.161-1.543-4.161-4.191V-238.74h6.129v-.562H39.66v-4.856h-.607v4.856H30.125v-1.276c0-3.554,1.182-4.732,4.763-4.732h1.257v-.552H34.836c-3.891,0-5.31,1.407-5.31,5.279v1.282H25.9v.562h3.627v15.829h.608V-238.74h8.918v11.066a4.368,4.368,0,0,0,4.735,4.763H45.9v-.586Z" transform="translate(111.373 245.862)" fill="#fff"/>
        <path id="Tracé_933" data-name="Tracé 933" d="M-257.107-174.574a8.389,8.389,0,0,1-2.641-.447v.357a.57.57,0,0,1-.179.415l-1.057,1v.3h6.249v-2.013A7.651,7.651,0,0,1-257.107-174.574Z" transform="translate(313.724 195.895)" fill="#fff"/>
      </g>
    </g>
  </g>
</svg>
