<svg id="Groupe_182" data-name="Groupe 182" xmlns="http://www.w3.org/2000/svg" width="60.611" height="64.334" viewBox="0 0 60.611 64.334">
  <g id="Groupe_84" data-name="Groupe 84" transform="translate(5.361 3.531)">
    <path id="Tracé_993" data-name="Tracé 993" d="M76.312,119.512a4.289,4.289,0,1,1,4.289-4.289A4.289,4.289,0,0,1,76.312,119.512Zm0-6.433a2.145,2.145,0,1,0,2.145,2.145A2.144,2.144,0,0,0,76.312,113.078Z" transform="translate(-72.023 -100.526)" fill="#61acc9"/>
    <path id="Tracé_994" data-name="Tracé 994" d="M315.245,110.979a4.289,4.289,0,1,1,4.289-4.289A4.289,4.289,0,0,1,315.245,110.979Zm0-6.433a2.145,2.145,0,1,0,2.145,2.145A2.144,2.144,0,0,0,315.245,104.545Z" transform="translate(-280.933 -93.065)" fill="#61acc9"/>
    <path id="Tracé_995" data-name="Tracé 995" d="M101.912,358.445a4.289,4.289,0,1,1,4.289-4.289A4.289,4.289,0,0,1,101.912,358.445Zm0-6.433a2.145,2.145,0,1,0,2.145,2.145A2.144,2.144,0,0,0,101.912,352.011Z" transform="translate(-94.406 -309.436)" fill="#61acc9"/>
    <path id="Tracé_996" data-name="Tracé 996" d="M204.312,401.112a4.289,4.289,0,1,1,4.289-4.289A4.289,4.289,0,0,1,204.312,401.112Zm0-6.433a2.145,2.145,0,1,0,2.145,2.145A2.144,2.144,0,0,0,204.312,394.678Z" transform="translate(-183.939 -346.742)" fill="#61acc9"/>
    <path id="Tracé_997" data-name="Tracé 997" d="M210.473,29.616,208.956,28.1,206.5,30.559,204.039,28.1l-1.516,1.516,2.459,2.459-2.459,2.459,1.516,1.516,2.459-2.459,2.459,2.459,1.516-1.516-2.459-2.459Z" transform="translate(-186.125 -28.1)" fill="#61acc9"/>
    <path id="Tracé_998" data-name="Tracé 998" d="M116.606,225.883l-1.516-1.516-2.459,2.459-2.459-2.459-1.516,1.516,2.459,2.459-2.459,2.459,1.516,1.516,2.459-2.459,2.459,2.459,1.516-1.516-2.459-2.459Z" transform="translate(-104.053 -199.705)" fill="#61acc9"/>
    <path id="Tracé_999" data-name="Tracé 999" d="M329.939,345.35l-1.516-1.516-2.459,2.459-2.459-2.459-1.516,1.516,2.459,2.459-2.459,2.459,1.516,1.516,2.459-2.459,2.459,2.459,1.516-1.516-2.458-2.459Z" transform="translate(-290.58 -304.161)" fill="#61acc9"/>
  </g>
  <g id="Groupe_85" data-name="Groupe 85" transform="translate(16.026 12.109)">
    <path id="Tracé_1000" data-name="Tracé 1000" d="M160.434,155.745h1.823V153.6h-4.289a1.073,1.073,0,0,0-1.072,1.072v4.289h2.145v-1.5a15.612,15.612,0,0,1-.793,20.081l1.588,1.443A17.767,17.767,0,0,0,160.434,155.745Z" transform="translate(-156.896 -146.408)" fill="#4398d1"/>
    <path id="Tracé_1001" data-name="Tracé 1001" d="M174.2,99.584l-3.217-3.217-1.516,1.516,1.386,1.386h-13.5v2.145h13.5l-1.386,1.386,1.516,1.516L174.2,101.1A1.071,1.071,0,0,0,174.2,99.584Z" transform="translate(-157.298 -96.367)" fill="#4398d1"/>
    <path id="Tracé_1002" data-name="Tracé 1002" d="M236.345,170.667h-4.289v2.145h1.737a30.135,30.135,0,0,0-8.17,20.708V196.4h2.145V193.52a28.014,28.014,0,0,1,7.506-19.154v1.663h2.145v-4.289A1.073,1.073,0,0,0,236.345,170.667Z" transform="translate(-216.987 -161.331)" fill="#4398d1"/>
  </g>
  <path id="Soustraction_1" data-name="Soustraction 1" d="M4.131,26.166H0V22.035L18.587,3.448h0l-.974.974,4.129,4.13L4.131,26.166ZM23.689,6.6,19.561,2.476l-.969.969,0,0L22.031,0l0,0L21.057.98l4.128,4.128-1.5,1.5Z" transform="translate(31.53 16.567)" fill="#619ef5"/>
  <path id="Tracé_1005" data-name="Tracé 1005" d="M436.618,144.889a2.922,2.922,0,0,0-4.13,0l-2.065,2.065,4.13,4.13,2.065-2.065A2.922,2.922,0,0,0,436.618,144.889Z" transform="translate(-376.862 -130.381)" fill="#619ef5"/>
  <path id="Tracé_1006" data-name="Tracé 1006" d="M79.751,0H30.428a1.073,1.073,0,0,0-1.072,1.072v62.19a1.073,1.073,0,0,0,1.072,1.072H72.246A1.078,1.078,0,0,0,73,64.02l7.506-7.506a1.067,1.067,0,0,0,.214-.314c.015-.033.024-.065.035-.1a1.075,1.075,0,0,0,.056-.278c0-.024.013-.044.013-.066V31.095H78.679V54.684H72.246a1.073,1.073,0,0,0-1.072,1.072V62.19H31.5V2.145H78.679V16.084h2.145V1.072A1.073,1.073,0,0,0,79.751,0ZM73.318,56.829h3.845l-3.845,3.845Z" transform="translate(-29.356 0)" fill="#fff"/>
  <path id="Tracé_1008" data-name="Tracé 1008" d="M80.6,115.223a4.289,4.289,0,1,0-4.289,4.289A4.289,4.289,0,0,0,80.6,115.223Zm-4.289,2.144a2.145,2.145,0,1,1,2.145-2.145A2.144,2.144,0,0,1,76.312,117.367Z" transform="translate(-66.662 -96.995)" fill="#fff"/>
  <path id="Tracé_1009" data-name="Tracé 1009" d="M204.039,36.05l2.459-2.459,2.459,2.459,1.516-1.516-2.459-2.459,2.459-2.459L208.956,28.1,206.5,30.559,204.039,28.1l-1.516,1.516,2.459,2.459-2.459,2.459Z" transform="translate(-180.764 -24.569)" fill="#fff"/>
  <path id="Tracé_1010" data-name="Tracé 1010" d="M315.245,110.978a4.289,4.289,0,1,0-4.289-4.289A4.289,4.289,0,0,0,315.245,110.978Zm0-6.433a2.145,2.145,0,1,1-2.144,2.145A2.144,2.144,0,0,1,315.245,104.545Z" transform="translate(-275.572 -89.533)" fill="#fff"/>
  <path id="Tracé_1011" data-name="Tracé 1011" d="M101.911,358.445a4.289,4.289,0,1,0-4.289-4.289A4.289,4.289,0,0,0,101.911,358.445Zm0-6.433a2.145,2.145,0,1,1-2.145,2.145A2.144,2.144,0,0,1,101.911,352.011Z" transform="translate(-89.044 -305.905)" fill="#fff"/>
  <path id="Tracé_1012" data-name="Tracé 1012" d="M114.147,228.342l2.459-2.459-1.516-1.516-2.459,2.459-2.459-2.459-1.516,1.516,2.459,2.459-2.459,2.459,1.516,1.516,2.459-2.459,2.459,2.459,1.516-1.516Z" transform="translate(-98.692 -196.175)" fill="#fff"/>
  <path id="Tracé_1013" data-name="Tracé 1013" d="M328.422,343.834l-2.459,2.459-2.459-2.459-1.516,1.516,2.459,2.459-2.459,2.459,1.516,1.516,2.459-2.459,2.459,2.459,1.516-1.516-2.458-2.459,2.458-2.459Z" transform="translate(-285.219 -300.63)" fill="#fff"/>
  <path id="Tracé_1014" data-name="Tracé 1014" d="M160.434,155.745h1.823V153.6h-4.289a1.073,1.073,0,0,0-1.072,1.072v4.289h2.145v-1.5a15.612,15.612,0,0,1-.793,20.081l1.588,1.443A17.767,17.767,0,0,0,160.434,155.745Z" transform="translate(-140.87 -134.3)" fill="#fff"/>
  <path id="Tracé_1015" data-name="Tracé 1015" d="M204.312,401.112a4.289,4.289,0,1,0-4.289-4.289A4.289,4.289,0,0,0,204.312,401.112Zm0-6.433a2.145,2.145,0,1,1-2.145,2.145A2.144,2.144,0,0,1,204.312,394.678Z" transform="translate(-178.578 -343.211)" fill="#fff"/>
  <path id="Tracé_1016" data-name="Tracé 1016" d="M157.356,101.414h13.5l-1.386,1.386,1.516,1.516L174.2,101.1a1.073,1.073,0,0,0,0-1.516l-3.217-3.217-1.516,1.516,1.386,1.386h-13.5Z" transform="translate(-141.272 -84.258)" fill="#fff"/>
  <path id="Tracé_1017" data-name="Tracé 1017" d="M235.272,176.028h2.145v-4.289a1.073,1.073,0,0,0-1.072-1.072h-4.289v2.145h1.737a30.137,30.137,0,0,0-8.17,20.709v2.88h2.145v-2.88a28.009,28.009,0,0,1,7.506-19.154v1.662Z" transform="translate(-200.961 -149.222)" fill="#fff"/>
</svg>
