<svg xmlns="http://www.w3.org/2000/svg" width="176.449" height="37.712" viewBox="0 0 176.449 37.712">
  <g id="Groupe_43" data-name="Groupe 43" transform="translate(444.124 245.862)">
    <g id="Groupe_76" data-name="Groupe 76" transform="translate(-444.124 -245.862)">
      <g id="Entertainment" transform="translate(0 30.712)">
        <g id="Groupe_74" data-name="Groupe 74">
          <text id="It_Solutions" data-name="It Solutions" transform="translate(0 6)" fill="#64a0f2" font-size="8" font-family="Mont-Regular, Mont" letter-spacing="0.029em" style="isolation: isolate"><tspan x="0" y="0">It Solutions</tspan></text>
        </g>
      </g>
      <g id="Groupe_75" data-name="Groupe 75" transform="translate(1.361)">
        <path id="Tracé_923" data-name="Tracé 923" d="M-173.168-212.365a4.283,4.283,0,0,0-4.332,3.444h8.848A4.494,4.494,0,0,0-173.168-212.365Z" transform="translate(263.598 223.353)" fill="none"/>
        <path id="Tracé_924" data-name="Tracé 924" d="M-340.772-211.145a4.858,4.858,0,0,0-4.976,5,4.858,4.858,0,0,0,4.976,5.005,4.85,4.85,0,0,0,4.971-5.005A4.849,4.849,0,0,0-340.772-211.145Z" transform="translate(376.657 222.533)" fill="none"/>
        <path id="Tracé_925" data-name="Tracé 925" d="M-26.4-222.658a8.557,8.557,0,0,0-8.778,8.809,8.592,8.592,0,0,0,8.778,8.808,8.574,8.574,0,0,0,8.778-8.808A8.574,8.574,0,0,0-26.4-222.658Z" transform="translate(167.958 230.269)" fill="none"/>
        <path id="Tracé_926" data-name="Tracé 926" d="M-427.753-221.883c-4.006,0-7.033-3.173-7.033-7.431s3.028-7.485,7.033-7.485a6.5,6.5,0,0,1,6.32,4.541h5.134a11.418,11.418,0,0,0-11.454-9.429,12.044,12.044,0,0,0-12.223,12.374,12.031,12.031,0,0,0,12.223,12.318h0a11.478,11.478,0,0,0,11.528-9.766h-5.162A6.414,6.414,0,0,1-427.753-221.883Z" transform="translate(439.975 243.056)" fill="#fff"/>
        <path id="Tracé_927" data-name="Tracé 927" d="M-345.427-222.977a8.9,8.9,0,0,0-6-2.233A9.355,9.355,0,0,0-361-215.592a9.389,9.389,0,0,0,9.579,9.674,8.874,8.874,0,0,0,5.917-2.178l.424,1.634h3.87v-18.26H-344.9Zm-5.6,12.39A4.858,4.858,0,0,1-356-215.592a4.858,4.858,0,0,1,4.976-5,4.849,4.849,0,0,1,4.971,5A4.85,4.85,0,0,1-351.023-210.587Z" transform="translate(386.908 231.984)" fill="#fff"/>
        <path id="Tracé_928" data-name="Tracé 928" d="M-265.44-224.959a6.9,6.9,0,0,0-5.538,2.779h-.209a5.924,5.924,0,0,0-5.205-2.779,7.02,7.02,0,0,0-5.447,2.7l-.925-2.264h-3.449v18.26h4.37l-.244-1.833a.631.631,0,0,1,.2-.543l1.107-1.044-.662-2.511a3.474,3.474,0,0,1,.4-2.711,1.4,1.4,0,0,0-1.046-.456,1.349,1.349,0,0,0-1.375,1.307v4.579a.673.673,0,0,1-.7.65h0a.673.673,0,0,1-.693-.653v-4.575a2.7,2.7,0,0,1,2.767-2.613,2.816,2.816,0,0,1,1.933.765,3.96,3.96,0,0,1,.75-.476,2.527,2.527,0,0,0,.654-.445l1.544-1.461a3.861,3.861,0,0,1,2.6-.995,3.662,3.662,0,0,1,3,1.516l1.371,1.936a1.128,1.128,0,0,0,.924.466,1.082,1.082,0,0,0,1.111-1.048v-3.524a1.836,1.836,0,0,1,.1-.58l-1.21-.856-.041-.03a.628.628,0,0,1-.1-.884.719.719,0,0,1,.968-.131l1.2.852a2.15,2.15,0,0,1,1.149-.329h4.2a.674.674,0,0,1,.693.654,3.367,3.367,0,0,1-2.814,3.2v3.556a9.23,9.23,0,0,1-2.8,6.606l-.214,1.614h8.065v-11.451C-259.009-222-261.661-224.959-265.44-224.959Z" transform="translate(336.651 231.816)" fill="#fff"/>
        <path id="Tracé_929" data-name="Tracé 929" d="M-183.695-225.213a9.339,9.339,0,0,0-9.471,9.647,9.371,9.371,0,0,0,9.471,9.646,9.345,9.345,0,0,0,9.062-6.517h-5.189a4.333,4.333,0,0,1-3.873,2.118,4.257,4.257,0,0,1-4.462-3.865h13.82a11.4,11.4,0,0,0,.1-1.447h0A9.3,9.3,0,0,0-183.695-225.213Zm-4.332,7.658A4.283,4.283,0,0,1-183.695-221a4.494,4.494,0,0,1,4.516,3.444Z" transform="translate(274.125 231.986)" fill="#fff"/>
        <rect id="Rectangle_20" data-name="Rectangle 20" width="4.937" height="24.841" transform="translate(103.396 0.709)" fill="#fff"/>
        <path id="Tracé_930" data-name="Tracé 930" d="M-88.442-229.5c-3.584-.771-7.074-1.5-7.074-5.312,0-3.317,2.675-5.485,6.814-5.485,3.96,0,6.574,2.306,6.574,5.817h.683c0-3.9-2.888-6.49-7.25-6.49-4.542,0-7.507,2.442-7.507,6.172,0,4.311,3.905,5.17,7.588,5.958,3.648.8,7.087,1.535,7.087,5.511,0,3.5-2.847,5.9-7,5.9-4.545,0-7.517-2.57-7.517-6.475h-.693c0,4.3,3.276,7.155,8.214,7.155,4.521,0,7.689-2.658,7.689-6.581C-80.83-227.813-84.692-228.675-88.442-229.5Z" transform="translate(209.325 242.573)" fill="#fff"/>
        <path id="Tracé_931" data-name="Tracé 931" d="M-27.795-224.689a9.231,9.231,0,0,0-9.461,9.475,9.251,9.251,0,0,0,9.461,9.474,9.233,9.233,0,0,0,9.462-9.474A9.234,9.234,0,0,0-27.795-224.689Zm0,18.283a8.592,8.592,0,0,1-8.778-8.808,8.557,8.557,0,0,1,8.778-8.809,8.574,8.574,0,0,1,8.778,8.809A8.574,8.574,0,0,1-27.795-206.406Z" transform="translate(169.357 231.634)" fill="#fff"/>
        <path id="Tracé_932" data-name="Tracé 932" d="M45.851-220.965c-2.949,0-4.633-1.717-4.633-4.666v-12.3h6.824v-.626H41.218v-5.406h-.676v5.406H30.6v-1.42c0-3.956,1.315-5.268,5.3-5.268h1.4v-.615H35.848c-4.332,0-5.911,1.566-5.911,5.877v1.427H25.9v.626h4.037v17.621h.676v-17.621h9.928v12.319c0,3.321,1.981,5.3,5.271,5.3H48.17v-.653Z" transform="translate(126.918 245.862)" fill="#fff"/>
        <path id="Tracé_933" data-name="Tracé 933" d="M-256.668-174.524a9.34,9.34,0,0,1-2.94-.5v.4a.635.635,0,0,1-.2.462l-1.177,1.115v.338h6.956v-2.241A8.517,8.517,0,0,1-256.668-174.524Z" transform="translate(319.697 198.259)" fill="#fff"/>
      </g>
    </g>
  </g>
</svg>
