<svg xmlns="http://www.w3.org/2000/svg" width="34.602" height="40.393" viewBox="0 0 34.602 40.393">
  <g id="Groupe_103" data-name="Groupe 103" transform="translate(0.25 0.25)">
    <path id="Tracé_1054" data-name="Tracé 1054" d="M56.729,51.861H43.83l-1.23,1.93-1.314-1.93H40V48H56.729Zm0,0" transform="translate(-36.783 -44.139)" fill="#619ef5"/>
    <path id="Tracé_1055" data-name="Tracé 1055" d="M56.729,155.861H43.83l-1.23,1.93-1.314-1.93H40V152H56.729Zm0,0" transform="translate(-36.783 -139.775)" fill="#619ef5"/>
    <path id="Tracé_1056" data-name="Tracé 1056" d="M40,259.861H52.9l1.23,1.93,1.314-1.93h1.287V256H40Zm0,0" transform="translate(-36.783 -235.41)" fill="#619ef5"/>
    <path id="Tracé_1057" data-name="Tracé 1057" d="M33.459,9.652h-10.3V.643A.643.643,0,0,0,22.52,0H.643A.643.643,0,0,0,0,.643V29.6a.643.643,0,0,0,.643.643h10.3V39.25a.643.643,0,0,0,.643.643H33.459a.643.643,0,0,0,.643-.643V10.3A.643.643,0,0,0,33.459,9.652ZM1.287,28.955V1.287h20.59V28.955Zm31.528,9.652H12.225V30.242h10.3a.643.643,0,0,0,.643-.643V10.938h9.652Zm0,0" transform="translate(0)" fill="#fff" stroke="#fff" stroke-width="0.5"/>
  </g>
</svg>
