<svg id="Groupe_100" data-name="Groupe 100" xmlns="http://www.w3.org/2000/svg" width="40.955" height="37.595" viewBox="0 0 40.955 37.595">
  <path id="Tracé_1075" data-name="Tracé 1075" d="M383.42,102.9l-1.992,1.943.47,2.742-2.463-1.294-2.464,1.294.47-2.742-1.993-1.943,2.754-.4,1.232-2.5,1.231,2.5Zm0,0" transform="translate(-345.417 -92.801)" fill="#619ef5"/>
  <path id="Tracé_1076" data-name="Tracé 1076" d="M196.845,14.1l-2.8,2.728.661,3.853-3.46-1.819-3.46,1.819.661-3.853-2.8-2.728,3.869-.561L191.247,10l1.73,3.538Zm0,0" transform="translate(-170.798 -10)" fill="#619ef5"/>
  <path id="Tracé_1077" data-name="Tracé 1077" d="M43.42,102.9l-1.993,1.943.47,2.742-2.463-1.294-2.464,1.294.47-2.742L35.449,102.9l2.754-.4,1.232-2.5,1.231,2.5Zm0,0" transform="translate(-32.614 -92.801)" fill="#619ef5"/>
  <path id="Tracé_1083" data-name="Tracé 1083" d="M367.975,244.487a4.487,4.487,0,1,0-4.487,4.487A4.492,4.492,0,0,0,367.975,244.487Zm-4.487,2.992a2.992,2.992,0,1,1,2.992-2.992A3,3,0,0,1,363.487,247.479Zm0,0" transform="translate(-329.972 -221.976)" fill="#fff"/>
  <path id="Tracé_1084" data-name="Tracé 1084" d="M33.516,341.6a7.816,7.816,0,0,0-5.395,2.193,9.6,9.6,0,0,0-15.286,0,7.818,7.818,0,0,0-5.4-2.193A7.42,7.42,0,0,0,0,348.8v1.6a.8.8,0,0,0,.8.8H40.155a.8.8,0,0,0,.8-.8v-1.6A7.42,7.42,0,0,0,33.516,341.6ZM1.6,348.8a5.8,5.8,0,0,1,5.839-5.6,6.106,6.106,0,0,1,4.513,1.987,9.6,9.6,0,0,0-1.073,4.412H1.6Zm18.878-7.2a8,8,0,0,1,8,8h-16A8.006,8.006,0,0,1,20.477,341.6Zm18.878,8H30.076A9.6,9.6,0,0,0,29,345.187a6.106,6.106,0,0,1,4.513-1.987,5.8,5.8,0,0,1,5.839,5.6Zm0,0" transform="translate(0 -313.603)" fill="#fff"/>
  <path id="Tracé_1085" data-name="Tracé 1085" d="M41.975,244.487a4.487,4.487,0,1,0-4.487,4.487A4.492,4.492,0,0,0,41.975,244.487Zm-4.487,2.992a2.992,2.992,0,1,1,2.992-2.992A3,3,0,0,1,37.487,247.479Zm0,0" transform="translate(-30.048 -221.976)" fill="#fff"/>
  <path id="Tracé_1086" data-name="Tracé 1086" d="M187.254,185.627a5.627,5.627,0,1,0-5.627,5.627A5.633,5.633,0,0,0,187.254,185.627Zm-5.627,4.22a4.22,4.22,0,1,1,4.22-4.22A4.225,4.225,0,0,1,181.627,189.848Zm0,0" transform="translate(-161.15 -165.63)" fill="#fff"/>
</svg>
