<svg id="help" xmlns="http://www.w3.org/2000/svg" width="64.178" height="64.334" viewBox="0 0 64.178 64.334">
  <path id="Tracé_975" data-name="Tracé 975" d="M141.443,57.343l2.507,4.342-3.592,2.075a8.045,8.045,0,0,1,0,4.044l3.592,2.075-2.507,4.342-3.595-2.076a8.755,8.755,0,0,1-3.5,2v4.169h-5.014V74.148a8.741,8.741,0,0,1-3.5-2l-3.6,2.076-2.507-4.342,3.592-2.075a8.045,8.045,0,0,1,0-4.044l-3.592-2.075,2.507-4.342,3.6,2.076a8.741,8.741,0,0,1,3.5-2V52.871h5.014v4.545a8.755,8.755,0,0,1,3.5,2ZM135.6,65.782a3.76,3.76,0,1,0-3.76,3.76A3.765,3.765,0,0,0,135.6,65.782Z" transform="translate(-103.889 -43.533)" fill="#619ef5"/>
  <path id="Tracé_980" data-name="Tracé 980" d="M61.04,20.808H56.528V3.76A3.765,3.765,0,0,0,52.767,0H4.383A3.765,3.765,0,0,0,.623,3.76V39.61a3.765,3.765,0,0,0,3.76,3.76H11.4v8.091a1.253,1.253,0,0,0,2,1l5.518-4.114V52.9a3.765,3.765,0,0,0,3.76,3.76H45.628l8.843,7.386a1.254,1.254,0,0,0,2.057-.962V56.657H61.04A3.765,3.765,0,0,0,64.8,52.9V24.568A3.764,3.764,0,0,0,61.04,20.808ZM12.656,40.863H4.383A1.255,1.255,0,0,1,3.13,39.61V3.76A1.255,1.255,0,0,1,4.383,2.507H52.767A1.255,1.255,0,0,1,54.021,3.76V39.61a1.255,1.255,0,0,1-1.254,1.254H25.191a1.252,1.252,0,0,0-.749.249L13.91,48.963V42.117A1.254,1.254,0,0,0,12.656,40.863ZM62.294,52.9A1.255,1.255,0,0,1,61.04,54.15H55.274A1.253,1.253,0,0,0,54.021,55.4v5l-7.135-5.959a1.254,1.254,0,0,0-.8-.291h-23.4A1.255,1.255,0,0,1,21.431,52.9V46.484l4.176-3.114H52.767a3.765,3.765,0,0,0,3.76-3.76v-16.3H61.04a1.255,1.255,0,0,1,1.254,1.254Z" transform="translate(-0.623)" fill="#fff"/>
</svg>
