<svg xmlns="http://www.w3.org/2000/svg" width="18.648" height="16.784" viewBox="0 0 18.648 16.784">
  <path id="message" d="M15.93,3a4.715,4.715,0,0,1,4.719,4.709v7.366a4.716,4.716,0,0,1-4.719,4.709H6.718A4.715,4.715,0,0,1,2,15.075V7.709A4.709,4.709,0,0,1,6.718,3Zm1.483,6.1.075-.075a.721.721,0,0,0-.01-.932.784.784,0,0,0-.493-.242.709.709,0,0,0-.523.186l-4.2,3.357a1.46,1.46,0,0,1-1.865,0L6.2,8.035a.713.713,0,0,0-1,1l.122.121,4.242,3.31a2.936,2.936,0,0,0,3.645,0Z" transform="translate(-2 -3)" fill="#619ef5" fill-rule="evenodd"/>
</svg>
