<svg id="select" xmlns="http://www.w3.org/2000/svg" width="66.872" height="64.334" viewBox="0 0 66.872 64.334">
  <path id="Tracé_934" data-name="Tracé 934" d="M7,36H9.157V51.1H7Z" transform="translate(-0.529 1.75)" fill="#fff"/>
  <path id="Tracé_935" data-name="Tracé 935" d="M8.236,55.471a3.236,3.236,0,1,1,3.236-3.236A3.24,3.24,0,0,1,8.236,55.471Z" transform="translate(-0.686 2.772)" fill="#619ef5"/>
  <path id="Tracé_936" data-name="Tracé 936" d="M13,41h2.157V56.1H13Z" transform="translate(-0.057 2.143)" fill="#fff"/>
  <path id="Tracé_937" data-name="Tracé 937" d="M14.236,42.471a3.236,3.236,0,1,1,3.236-3.236A3.24,3.24,0,0,1,14.236,42.471Z" transform="translate(-0.214 1.75)" fill="#619ef5"/>
  <path id="Tracé_938" data-name="Tracé 938" d="M51,36h2.157V51.1H51Z" transform="translate(2.929 1.75)" fill="#fff"/>
  <path id="Tracé_939" data-name="Tracé 939" d="M52.236,55.471a3.236,3.236,0,1,1,3.236-3.236A3.24,3.24,0,0,1,52.236,55.471Z" transform="translate(2.772 2.772)" fill="#619ef5"/>
  <path id="Tracé_940" data-name="Tracé 940" d="M57,41h2.157V56.1H57Z" transform="translate(3.4 2.143)" fill="#fff"/>
  <path id="Tracé_941" data-name="Tracé 941" d="M58.236,42.471a3.236,3.236,0,1,1,3.236-3.236A3.24,3.24,0,0,1,58.236,42.471Z" transform="translate(3.243 1.75)" fill="#619ef5"/>
  <path id="Tracé_942" data-name="Tracé 942" d="M57.086,15.022a10.724,10.724,0,0,0-4.174.841l-6.645-3.655a11.848,11.848,0,0,0-23.662,0L15.96,15.863a10.907,10.907,0,1,0,2.191,1.257l4.561-2.509a11.9,11.9,0,0,0,8.49,9.665V44.157a3.235,3.235,0,0,1-.33,1.423l-.9-4.524a6.971,6.971,0,0,0-6.817-5.588,2.734,2.734,0,0,0-2.275,4.251l1.11,1.665a4.812,4.812,0,0,1,.768,2.064l.746,5.968a7.326,7.326,0,0,0,.9,2.747l3.563,7.328v5.843h2.157V59l-3.814-7.838a5.326,5.326,0,0,1-.669-2.005l-.746-5.969A6.967,6.967,0,0,0,23.78,40.19l-1.111-1.666a.577.577,0,0,1,.48-.9,4.809,4.809,0,0,1,4.7,3.854l1.387,6.932h2.63l.921-1.843a5.422,5.422,0,0,0,.569-2.411V23.65a1.079,1.079,0,0,1,2.157,0V40.907h2.157V36.593a1.079,1.079,0,1,1,2.157,0v4.314h2.157V36.593a1.079,1.079,0,1,1,2.157,0v4.314H46.3V38.75a1.079,1.079,0,0,1,2.157,0V52.772a5.423,5.423,0,0,1-1.079,3.236l-2.157,2.877v6.45h2.157V59.6L49.1,57.3a7.591,7.591,0,0,0,1.51-4.53V38.75a3.225,3.225,0,0,0-4.439-3A3.207,3.207,0,0,0,40.907,34.2a3.136,3.136,0,0,0-3.236-.643V24.275a11.9,11.9,0,0,0,8.488-9.663l4.56,2.509a10.765,10.765,0,1,0,6.366-2.1ZM6.617,32.7a6.469,6.469,0,0,1,10.337,0,8.564,8.564,0,0,1-10.337,0ZM8.55,24.729a3.236,3.236,0,1,1,3.236,3.236A3.24,3.24,0,0,1,8.55,24.729Zm11.864,1.079a8.579,8.579,0,0,1-1.907,5.4,8.625,8.625,0,0,0-3.161-2.457,5.393,5.393,0,1,0-7.121,0A8.636,8.636,0,0,0,5.064,31.2a8.625,8.625,0,1,1,15.35-5.4Zm14.022-5.393a3.225,3.225,0,0,0-2.846,1.73,9.642,9.642,0,0,1-3.235-1.727,6.442,6.442,0,0,1,12.162,0,9.622,9.622,0,0,1-3.234,1.729A3.228,3.228,0,0,0,34.436,20.414ZM31.2,10.707a3.236,3.236,0,1,1,3.236,3.236A3.24,3.24,0,0,1,31.2,10.707Zm10.956,8.016a8.59,8.59,0,0,0-4.146-4.009,5.393,5.393,0,1,0-7.149,0,8.59,8.59,0,0,0-4.147,4.01,9.708,9.708,0,1,1,15.442,0ZM51.918,32.7a6.469,6.469,0,0,1,10.337,0,8.564,8.564,0,0,1-10.337,0Zm1.933-7.972a3.236,3.236,0,1,1,3.236,3.236A3.24,3.24,0,0,1,53.85,24.729ZM63.808,31.2a8.625,8.625,0,0,0-3.161-2.457,5.393,5.393,0,1,0-7.121,0A8.636,8.636,0,0,0,50.364,31.2a8.629,8.629,0,1,1,13.443,0Z" transform="translate(-1 -1)" fill="#fff"/>
</svg>
