<svg id="video-call_1_" data-name="video-call (1)" xmlns="http://www.w3.org/2000/svg" width="74.86" height="64.334" viewBox="0 0 74.86 64.334">
  <g id="Groupe_81" data-name="Groupe 81" transform="translate(31.548 25.129)">
    <ellipse id="Ellipse_17" data-name="Ellipse 17" cx="5.953" cy="5.9" rx="5.953" ry="5.9" fill="#619ef5"/>
  </g>
  <g id="Groupe_82" data-name="Groupe 82" transform="translate(0 0)">
    <path id="Tracé_972" data-name="Tracé 972" d="M10.235,100.333H30.851a1.462,1.462,0,1,0,0-2.924H10.235a7.323,7.323,0,0,1-7.164-5.85H71.789a7.323,7.323,0,0,1-7.164,5.85H44.01a1.462,1.462,0,0,0,0,2.924H64.626A10.246,10.246,0,0,0,74.86,90.1,1.462,1.462,0,0,0,73.4,88.636H68.281V50.621a1.462,1.462,0,0,0-1.462-1.462H56.438v-11.7a1.462,1.462,0,0,0-2.273-1.216L43.279,43.5V37.462A1.462,1.462,0,0,0,41.817,36H19.885a1.462,1.462,0,0,0-1.462,1.462v11.7H8.042A1.462,1.462,0,0,0,6.58,50.621V88.636H1.462A1.462,1.462,0,0,0,0,90.1,10.246,10.246,0,0,0,10.235,100.333Zm34.506-11.7H30.12V84.25a7.311,7.311,0,0,1,14.621,0Zm8.773-48.442V52.276l-9.061-6.041Zm-32.167-1.27H40.354V53.545H21.347ZM9.5,52.083h8.919v2.924a1.462,1.462,0,0,0,1.462,1.462H41.817a1.462,1.462,0,0,0,1.462-1.462V48.967l10.886,7.257a1.462,1.462,0,0,0,2.273-1.216V52.083h8.919V88.636H47.665V84.25a10.235,10.235,0,0,0-20.47,0v4.386H9.5Z" transform="translate(0 -36)" fill="#fff"/>
    <rect id="Rectangle_31" data-name="Rectangle 31" width="19.451" height="2.537" transform="translate(30.21 61.797)" fill="#fff"/>
  </g>
</svg>
