<svg xmlns="http://www.w3.org/2000/svg" width="46.845" height="46.845" viewBox="0 0 46.845 46.845">
  <path id="_010-linkedin" data-name="010-linkedin" d="M23.423,0A23.423,23.423,0,1,0,46.845,23.423,23.425,23.425,0,0,0,23.423,0ZM16.616,35.408h-5.7V18.246h5.7ZM13.764,15.9h-.037a2.973,2.973,0,1,1,.075-5.93,2.974,2.974,0,1,1-.038,5.93ZM37.185,35.408h-5.7V26.227c0-2.307-.826-3.881-2.89-3.881a3.123,3.123,0,0,0-2.927,2.086,3.906,3.906,0,0,0-.188,1.392v9.584h-5.7s.075-15.552,0-17.162h5.7v2.43a5.663,5.663,0,0,1,5.141-2.833c3.753,0,6.567,2.453,6.567,7.724Zm0,0" fill="#fff"/>
</svg>
