<svg xmlns="http://www.w3.org/2000/svg" width="68.856" height="68.856" viewBox="0 0 68.856 68.856">
  <path id="close-square.4" d="M21.52,2H51.369C63.04,2,70.855,10.193,70.855,22.38V50.511c0,12.153-7.815,20.343-19.486,20.343H21.52C9.849,70.855,2,62.664,2,50.511V22.38C2,10.193,9.849,2,21.52,2ZM46.79,46.755a2.988,2.988,0,0,0,0-4.231L40.662,36.4l6.128-6.132A3.017,3.017,0,1,0,42.521,26l-6.094,6.125L30.3,26a3.017,3.017,0,0,0-4.269,4.266L32.159,36.4,26.03,42.49a3.03,3.03,0,0,0,0,4.266,3.062,3.062,0,0,0,2.135.9,3,3,0,0,0,2.134-.9l6.128-6.09,6.128,6.09a2.833,2.833,0,0,0,2.1.9A3,3,0,0,0,46.79,46.755Z" transform="translate(-2 -1.999)" fill="#fff" fill-rule="evenodd"/>
</svg>
