<svg xmlns="http://www.w3.org/2000/svg" width="75.605" height="69.403" viewBox="0 0 75.605 69.403">
  <g id="Groupe_100" data-name="Groupe 100" transform="translate(0)">
    <path id="Tracé_1075" data-name="Tracé 1075" d="M390.164,105.345l-3.678,3.587.868,5.062-4.547-2.389-4.548,2.389.868-5.062-3.678-3.587,5.084-.738L382.808,100l2.273,4.607Zm0,0" transform="translate(-320.008 -86.71)" fill="#619ef5"/>
    <path id="Tracé_1076" data-name="Tracé 1076" d="M206.319,17.568,201.15,22.6l1.221,7.113-6.388-3.358L189.6,29.718l1.219-7.113-5.168-5.037,7.142-1.037L195.984,10l3.194,6.531Zm0,0" transform="translate(-158.234 -10)" fill="#619ef5"/>
    <path id="Tracé_1077" data-name="Tracé 1077" d="M50.164,105.345l-3.678,3.587.868,5.062-4.547-2.389-4.548,2.389.868-5.062-3.678-3.587,5.084-.738L42.808,100l2.273,4.607Zm0,0" transform="translate(-30.215 -86.71)" fill="#619ef5"/>
    <path id="Tracé_1083" data-name="Tracé 1083" d="M375.568,248.284a8.284,8.284,0,1,0-8.284,8.284A8.293,8.293,0,0,0,375.568,248.284Zm-8.284,5.523a5.523,5.523,0,1,1,5.523-5.523A5.529,5.529,0,0,1,367.284,253.807Zm0,0" transform="translate(-305.412 -206.727)" fill="#fff"/>
    <path id="Tracé_1084" data-name="Tracé 1084" d="M61.872,342.953A14.429,14.429,0,0,0,51.913,347a17.717,17.717,0,0,0-28.22,0,14.433,14.433,0,0,0-9.96-4.049C6.289,342.953,0,349.039,0,356.243V359.2a1.477,1.477,0,0,0,1.477,1.477H74.128a1.477,1.477,0,0,0,1.477-1.477v-2.953C75.605,349.039,69.316,342.953,61.872,342.953ZM2.953,356.243c0-5.6,4.936-10.337,10.78-10.337a11.273,11.273,0,0,1,8.331,3.669,17.72,17.72,0,0,0-1.981,8.145H2.953ZM37.8,342.953A14.763,14.763,0,0,1,52.569,357.72H23.036A14.779,14.779,0,0,1,37.8,342.953ZM72.652,357.72H55.522a17.72,17.72,0,0,0-1.981-8.145,11.273,11.273,0,0,1,8.331-3.669c5.843,0,10.78,4.733,10.78,10.337Zm0,0" transform="translate(0 -291.27)" fill="#fff"/>
    <path id="Tracé_1085" data-name="Tracé 1085" d="M49.568,248.284a8.284,8.284,0,1,0-8.284,8.284A8.293,8.293,0,0,0,49.568,248.284Zm-8.284,5.523a5.523,5.523,0,1,1,5.523-5.523A5.529,5.529,0,0,1,41.284,253.807Zm0,0" transform="translate(-27.551 -206.727)" fill="#fff"/>
    <path id="Tracé_1086" data-name="Tracé 1086" d="M196.776,190.388a10.388,10.388,0,1,0-10.388,10.388A10.4,10.4,0,0,0,196.776,190.388Zm-10.388,7.791a7.791,7.791,0,1,1,7.791-7.791A7.8,7.8,0,0,1,186.388,198.179Zm0,0" transform="translate(-148.586 -153.472)" fill="#fff"/>
  </g>
</svg>
