<svg xmlns="http://www.w3.org/2000/svg" width="80.185" height="69.903" viewBox="0 0 80.185 69.903">
  <g id="Groupe_102" data-name="Groupe 102" transform="translate(0.25 0.25)">
    <g id="Groupe_99" data-name="Groupe 99" transform="translate(0)">
      <ellipse id="Ellipse_25" data-name="Ellipse 25" cx="14.938" cy="15.321" rx="14.938" ry="15.321" transform="translate(25.878 28.035)" fill="#619ef5"/>
      <path id="Tracé_1050" data-name="Tracé 1050" d="M84.471,55.423H82.544V41.285A1.285,1.285,0,0,0,81.258,40H14.426a1.285,1.285,0,0,0-1.285,1.285v3.856H11.213A3.216,3.216,0,0,0,8,48.354V106.19a3.216,3.216,0,0,0,3.213,3.213H84.471a3.216,3.216,0,0,0,3.213-3.213V58.636A3.216,3.216,0,0,0,84.471,55.423ZM15.711,42.57H79.973V55.423H40.924L36.14,45.851a1.287,1.287,0,0,0-1.15-.71H15.711Zm69.4,63.619a.643.643,0,0,1-.643.643H11.213a.643.643,0,0,1-.643-.643V48.354a.643.643,0,0,1,.643-.643H34.2l4.784,9.572a1.287,1.287,0,0,0,1.15.71H84.471a.643.643,0,0,1,.643.643Z" transform="translate(-8 -40)" fill="#fff" stroke="#fff" stroke-width="0.5"/>
      <path id="Tracé_1052" data-name="Tracé 1052" d="M208.825,264.322l-10.307,10.307-4.732-3.786a1.1,1.1,0,1,0-1.375,1.718l5.5,4.4a1.1,1.1,0,0,0,1.465-.081l11-11a1.1,1.1,0,1,0-1.556-1.556Z" transform="translate(-160.807 -226.95)" fill="#fff" stroke="#fff" stroke-width="1"/>
    </g>
  </g>
</svg>
