<svg xmlns="http://www.w3.org/2000/svg" width="50.105" height="50.955" viewBox="0 0 50.105 50.955">
  <g id="Groupe_121" data-name="Groupe 121" transform="translate(-3871 -1280.625)">
    <path id="Tracé_1501" data-name="Tracé 1501" d="M232,432h1.7v1.7H232Zm0,0" transform="translate(3663.628 894.484)" fill="#fff"/>
    <path id="Tracé_1503" data-name="Tracé 1503" d="M232,80h4.246v1.7H232Zm0,0" transform="translate(3663.628 1209.118)" fill="#fff"/>
    <path id="Tracé_1504" data-name="Tracé 1504" d="M232,112h11.889v1.7H232Zm0,0" transform="translate(3663.628 1180.515)" fill="#fff"/>
    <path id="Tracé_1505" data-name="Tracé 1505" d="M232,144h8.492v1.7H232Zm0,0" transform="translate(3663.628 1151.912)" fill="#fff"/>
    <path id="Tracé_1506" data-name="Tracé 1506" d="M232,192h11.889v1.7H232Zm0,0" transform="translate(3663.628 1109.007)" fill="#fff"/>
    <path id="Tracé_1507" data-name="Tracé 1507" d="M232,224h11.889v1.7H232Zm0,0" transform="translate(3663.628 1080.404)" fill="#fff"/>
    <path id="Tracé_1508" data-name="Tracé 1508" d="M232,256h8.492v1.7H232Zm0,0" transform="translate(3663.628 1051.801)" fill="#fff"/>
    <path id="Tracé_1509" data-name="Tracé 1509" d="M232,304h11.889v1.7H232Zm0,0" transform="translate(3663.628 1008.897)" fill="#fff"/>
    <path id="Tracé_1510" data-name="Tracé 1510" d="M232,336h2.548v1.7H232Zm0,0" transform="translate(3663.628 980.294)" fill="#fff"/>
    <path id="Tracé_1511" data-name="Tracé 1511" d="M232,368h8.492v1.7H232Zm0,0" transform="translate(3663.628 951.69)" fill="#fff"/>
    <path id="Tracé_1512" data-name="Tracé 1512" d="M288,80h5.945v1.7H288Zm0,0" transform="translate(3613.573 1209.118)" fill="#fff"/>
    <path id="Tracé_1513" data-name="Tracé 1513" d="M272,336h4.246v1.7H272Zm0,0" transform="translate(3627.874 980.294)" fill="#fff"/>
    <path id="Tracé_1514" data-name="Tracé 1514" d="M266.548,152h17.834a1.7,1.7,0,0,1,1.7,1.7v12.739a2.548,2.548,0,0,1-2.548,2.548h-4.246l-7.643,5.1,1.7-5.1H265.7a1.7,1.7,0,0,1-1.7-1.7V154.548A2.548,2.548,0,0,1,266.548,152Zm0,0" transform="translate(3635.025 1144.761)" fill="#619ef5"/>
    <path id="Tracé_1515" data-name="Tracé 1515" d="M289.7,195.4H288v-.849A2.548,2.548,0,0,1,290.548,192v1.7a.849.849,0,0,0-.849.849Zm0,0" transform="translate(3613.573 1109.007)" fill="#e3584b"/>
    <path id="Tracé_1516" data-name="Tracé 1516" d="M321.7,195.4H320v-.849A2.548,2.548,0,0,1,322.548,192v1.7a.849.849,0,0,0-.849.849Zm0,0" transform="translate(3584.969 1109.007)" fill="#e3584b"/>
    <path id="Tracé_1517" data-name="Tracé 1517" d="M424,195.4v-1.7a.849.849,0,0,0,.849-.849V192h1.7v.849A2.548,2.548,0,0,1,424,195.4Zm0,0" transform="translate(3492.01 1109.007)" fill="#e3584b"/>
    <path id="Tracé_1518" data-name="Tracé 1518" d="M392,195.4v-1.7a.849.849,0,0,0,.849-.849V192h1.7v.849A2.548,2.548,0,0,1,392,195.4Zm0,0" transform="translate(3520.613 1109.007)" fill="#e3584b"/>
    <path id="Tracé_1519" data-name="Tracé 1519" d="M320,264h1.7v1.7H320Zm0,0" transform="translate(3584.969 1044.65)" fill="#e3584b"/>
    <path id="Tracé_1520" data-name="Tracé 1520" d="M352,264h1.7v1.7H352Zm0,0" transform="translate(3556.367 1044.65)" fill="#e3584b"/>
    <path id="Tracé_1521" data-name="Tracé 1521" d="M384,264h1.7v1.7H384Zm0,0" transform="translate(3527.764 1044.65)" fill="#e3584b"/>
    <path id="Union_9" data-name="Union 9" d="M4.246,11.889H0V5.1H4.246l1.7-1.7V.85A.85.85,0,0,1,6.794,0,2.548,2.548,0,0,1,9.342,2.548V5.1H12.4a1.189,1.189,0,0,1,1.189,1.189V10.7A1.189,1.189,0,0,1,12.4,11.889Z" transform="translate(3875.246 1293.364)" fill="#619ef5"/>
    <path id="Tracé_1526" data-name="Tracé 1526" d="M126.573,13.588V4.246A4.251,4.251,0,0,0,122.327,0h-22.08A4.251,4.251,0,0,0,96,4.246V6.794h28.874v6.794ZM97.7,5.1V4.246A2.548,2.548,0,0,1,100.246,1.7h22.08a2.548,2.548,0,0,1,2.548,2.548V5.1Zm0,0" transform="translate(3785.191 1280.625)" fill="#fff"/>
    <path id="Tracé_1527" data-name="Tracé 1527" d="M124.874,328.492H97.7V320H96v12.739a4.251,4.251,0,0,0,4.246,4.246h22.08a4.251,4.251,0,0,0,4.246-4.246V325.1h-1.7Zm-2.548,6.794h-22.08a2.548,2.548,0,0,1-2.548-2.548v-2.548h27.176v2.548A2.548,2.548,0,0,1,122.327,335.286Zm0,0" transform="translate(3785.191 994.595)" fill="#fff"/>
    <path id="Tracé_1528" data-name="Tracé 1528" d="M232,432h1.7v1.7H232Zm0,0" transform="translate(3663.628 894.484)" fill="#fff"/>
    <path id="Tracé_1529" data-name="Tracé 1529" d="M232,80h4.246v1.7H232Zm0,0" transform="translate(3663.628 1209.118)" fill="#fff"/>
    <path id="Tracé_1530" data-name="Tracé 1530" d="M232,112h11.889v1.7H232Zm0,0" transform="translate(3663.628 1180.515)" fill="#fff"/>
    <path id="Tracé_1531" data-name="Tracé 1531" d="M136,308.246v3.4a.849.849,0,0,0,.849.849h6.794a.849.849,0,0,0,.849-.849v-6.794a.849.849,0,0,0-.849-.849h-3.4v1.7h2.548v5.1h-5.1v-2.548Zm0,0" transform="translate(3749.437 1008.897)" fill="#fff"/>
    <path id="Tracé_1532" data-name="Tracé 1532" d="M232,336h2.548v1.7H232Zm0,0" transform="translate(3663.628 980.293)" fill="#fff"/>
    <path id="Tracé_1533" data-name="Tracé 1533" d="M232,368h8.492v1.7H232Zm0,0" transform="translate(3663.628 951.69)" fill="#fff"/>
    <path id="Tracé_1534" data-name="Tracé 1534" d="M3.4,100.382H7.376l8.273,5.791a.849.849,0,0,0,1.267-1.03l-2.04-4.761h4.656a3.4,3.4,0,0,0,3.4-3.4V83.4a3.4,3.4,0,0,0-3.4-3.4H3.4A3.4,3.4,0,0,0,0,83.4V96.985A3.4,3.4,0,0,0,3.4,100.382ZM1.7,83.4a1.7,1.7,0,0,1,1.7-1.7H19.533a1.7,1.7,0,0,1,1.7,1.7V96.985a1.7,1.7,0,0,1-1.7,1.7H13.588a.849.849,0,0,0-.78,1.184l1.375,3.2L8.132,98.837a.848.848,0,0,0-.488-.154H3.4a1.7,1.7,0,0,1-1.7-1.7Zm0,0" transform="translate(3871 1209.118)" fill="#fff"/>
    <path id="Tracé_1537" data-name="Tracé 1537" d="M288,194.548v.849h1.7v-.849a.849.849,0,0,1,.849-.849V192A2.548,2.548,0,0,0,288,194.548Zm0,0" transform="translate(3613.573 1109.007)" fill="#fff"/>
    <path id="Tracé_1538" data-name="Tracé 1538" d="M320,194.548v.849h1.7v-.849a.849.849,0,0,1,.849-.849V192A2.548,2.548,0,0,0,320,194.548Zm0,0" transform="translate(3584.969 1109.007)" fill="#fff"/>
    <path id="Tracé_1539" data-name="Tracé 1539" d="M424.849,192.849a.849.849,0,0,1-.849.849v1.7a2.548,2.548,0,0,0,2.548-2.548V192h-1.7Zm0,0" transform="translate(3492.01 1109.007)" fill="#fff"/>
    <path id="Tracé_1540" data-name="Tracé 1540" d="M392.849,192.849a.849.849,0,0,1-.849.849v1.7a2.548,2.548,0,0,0,2.548-2.548V192h-1.7Zm0,0" transform="translate(3520.613 1109.007)" fill="#fff"/>
    <path id="Tracé_1541" data-name="Tracé 1541" d="M320,264h1.7v1.7H320Zm0,0" transform="translate(3584.969 1044.65)" fill="#fff"/>
    <path id="Tracé_1542" data-name="Tracé 1542" d="M352,264h1.7v1.7H352Zm0,0" transform="translate(3556.367 1044.65)" fill="#fff"/>
    <path id="Tracé_1543" data-name="Tracé 1543" d="M384,264h1.7v1.7H384Zm0,0" transform="translate(3527.764 1044.65)" fill="#fff"/>
    <path id="Tracé_1544" data-name="Tracé 1544" d="M288,80h5.945v1.7H288Zm0,0" transform="translate(3613.573 1209.118)" fill="#fff"/>
    <path id="Tracé_1545" data-name="Tracé 1545" d="M272,336h4.246v1.7H272Zm0,0" transform="translate(3627.874 980.293)" fill="#fff"/>
  </g>
</svg>
