<svg xmlns="http://www.w3.org/2000/svg" width="50.955" height="50.954" viewBox="0 0 50.955 50.954">
  <g id="Groupe_119" data-name="Groupe 119" transform="translate(-3681 -1280.625)">
    <path id="Tracé_1420" data-name="Tracé 1420" d="M80,32h1.7v1.7H80Zm0,0" transform="translate(3609.492 1252.022)" fill="#5eb3d1"/>
    <path id="Tracé_1421" data-name="Tracé 1421" d="M112,32h1.7v1.7H112Zm0,0" transform="translate(3580.889 1252.022)" fill="#5eb3d1"/>
    <path id="Tracé_1422" data-name="Tracé 1422" d="M144,32h1.7v1.7H144Zm0,0" transform="translate(3552.286 1252.022)" fill="#5eb3d1"/>
    <path id="Tracé_1432" data-name="Tracé 1432" d="M47.558,6.794h-1.7V3.4a3.4,3.4,0,0,0-3.4-3.4H8.492A3.4,3.4,0,0,0,5.1,3.4v3.4H3.4a3.4,3.4,0,0,0-3.4,3.4V39.065a3.4,3.4,0,0,0,3.4,3.4H20.089l-2.038,6.794H16.136v1.7H34.819v-1.7H32.9l-2.038-6.794H47.558a3.4,3.4,0,0,0,3.4-3.4V10.191A3.4,3.4,0,0,0,47.558,6.794ZM1.7,10.191a1.7,1.7,0,0,1,1.7-1.7H5.1V33.97h1.7V3.4a1.7,1.7,0,0,1,1.7-1.7h33.97a1.7,1.7,0,0,1,1.7,1.7V33.97h1.7V8.492h1.7a1.7,1.7,0,0,1,1.7,1.7V35.668H1.7ZM31.13,49.256h-11.3l2.038-6.794h7.229ZM49.256,39.065a1.7,1.7,0,0,1-1.7,1.7H3.4a1.7,1.7,0,0,1-1.7-1.7v-1.7H49.256Zm0,0" transform="translate(3681 1280.625)" fill="#fff"/>
    <path id="Tracé_1433" data-name="Tracé 1433" d="M80,32h1.7v1.7H80Zm0,0" transform="translate(3609.492 1252.022)" fill="#619ef5"/>
    <path id="Tracé_1434" data-name="Tracé 1434" d="M112,32h1.7v1.7H112Zm0,0" transform="translate(3580.889 1252.022)" fill="#619ef5"/>
    <path id="Tracé_1435" data-name="Tracé 1435" d="M144,32h1.7v1.7H144Zm0,0" transform="translate(3552.286 1252.022)" fill="#619ef5"/>
    <path id="Tracé_1436" data-name="Tracé 1436" d="M344.027,130.7l4.391-.98.37,1.658-4.391.98Zm0,0" transform="translate(3373.493 1164.68)" fill="#619ef5"/>
    <path id="Tracé_1437" data-name="Tracé 1437" d="M322.344,44.888l2.548-2.548,1.2,1.2-2.548,2.548Zm0,0" transform="translate(3392.875 1242.78)" fill="#619ef5"/>
    <path id="Tracé_1438" data-name="Tracé 1438" d="M356.426,210.367l.76-1.519,3.4,1.7-.759,1.519Zm0,0" transform="translate(3362.411 1093.948)" fill="#619ef5"/>
    <path id="Tracé_1439" data-name="Tracé 1439" d="M104.173,33.842A2.649,2.649,0,0,0,99,35l.262,1.172L88.581,42.907l-4.246.948a5.343,5.343,0,0,0,.559,10.531l1.449,6.49a.849.849,0,0,0,1.012.642l3.513-.785a.85.85,0,0,0,.644-1.014l-1.384-6.2.785-.175L103.447,54.9l.255,1.135a2.648,2.648,0,0,0,5.169-1.154ZM81.938,49.87A3.652,3.652,0,0,1,84.7,45.513l3.562-.795.8,3.562.795,3.562-.926.207-2.633.588A3.652,3.652,0,0,1,81.94,49.87Zm7.728,9.388-1.856.415-1.2-5.368.045-.01,1.806-.4Zm1.9-7.543-1.7-7.612,9.788-6.174,3.4,15.21Zm14.947,4.666a.951.951,0,0,1-1.153-.717l-4.7-21.039a.95.95,0,0,1,1.855-.413l4.694,21.038a.956.956,0,0,1-.7,1.13Zm0,0" transform="translate(3609.375 1252.228)" fill="#fff"/>
    <path id="Tracé_1423" data-name="Tracé 1423" d="M180.763,97.657l-15.637-1.939-2.31-10.344,13.328-8.406Zm0,0" transform="translate(3533.905 1210.026)" fill="#619ef5"/>
  </g>
</svg>
