<svg xmlns="http://www.w3.org/2000/svg" width="42.462" height="51.955" viewBox="0 0 42.462 51.955">
  <g id="Groupe_125" data-name="Groupe 125" transform="translate(-4161 -1280.625)">
    <path id="Tracé_1647" data-name="Tracé 1647" d="M23.884.163V.169a20.76,20.76,0,0,0-5.3,0V.163A21.251,21.251,0,0,0,0,21.231V45.009a5.952,5.952,0,0,0,5.945,5.945h9.512A3.7,3.7,0,0,0,18.543,49.3a2.009,2.009,0,0,1,1.669-.9H22.25a2.007,2.007,0,0,1,1.674.9,3.7,3.7,0,0,0,3.082,1.652h9.511a5.952,5.952,0,0,0,5.945-5.945V21.231A21.25,21.25,0,0,0,23.884.163ZM19.533,1.776a18.444,18.444,0,0,1,3.4,0V3.491a15.354,15.354,0,0,0-3.4,0Zm-.8,3.515a.509.509,0,0,0,.079,0,14.309,14.309,0,0,1,4.841,0,.738.738,0,0,0,.128.01h.015A16.22,16.22,0,0,1,37.367,21.231v1.942a24.491,24.491,0,0,0-6.752,1.971,22.534,22.534,0,0,1-9.384,2.032,22.608,22.608,0,0,1-9.447-2.062A24.266,24.266,0,0,0,5.1,23.172V21.231A16.22,16.22,0,0,1,18.731,5.291ZM1.7,21.231A19.541,19.541,0,0,1,17.834,2.013V3.736A17.931,17.931,0,0,0,3.4,21.231v1.764c-.563-.039-1.129-.065-1.7-.065ZM40.764,45.009a4.251,4.251,0,0,1-4.246,4.246H27.006a2.009,2.009,0,0,1-1.674-.9,3.7,3.7,0,0,0-3.082-1.652H20.212a3.7,3.7,0,0,0-3.087,1.652,2.009,2.009,0,0,1-1.669.9H5.945A4.252,4.252,0,0,1,1.7,45.009V38.215a4.251,4.251,0,0,1,4.246-4.246H36.517a4.251,4.251,0,0,1,4.246,4.246Zm0-10.946a5.921,5.921,0,0,0-4.246-1.793H5.945A5.922,5.922,0,0,0,1.7,34.063V24.628a22.6,22.6,0,0,1,9.447,2.062,24.217,24.217,0,0,0,10.086,2.184,24.291,24.291,0,0,0,10.149-2.214,22.527,22.527,0,0,1,9.383-2.032Zm0-11.134c-.57,0-1.135.026-1.7.065V21.231A17.93,17.93,0,0,0,24.628,3.736V2.013A19.541,19.541,0,0,1,40.764,21.231Zm0,0" transform="translate(4161 1280.626)" fill="#fff"/>
    <path id="Tracé_1642" data-name="Tracé 1642" d="M45.154,330.687H35.247a2.944,2.944,0,0,1-2.477-1.4,2.941,2.941,0,0,0-2.477-1.4H28.17a2.942,2.942,0,0,0-2.477,1.4,2.943,2.943,0,0,1-2.477,1.4H13.308A5.463,5.463,0,0,1,8,325.082v-7.473A5.462,5.462,0,0,1,13.308,312H45.154a5.462,5.462,0,0,1,5.308,5.605v7.473A5.462,5.462,0,0,1,45.154,330.687Zm0,0" transform="translate(4153 1001.893)" fill="#619ef5"/>
  </g>
</svg>
