<svg xmlns="http://www.w3.org/2000/svg" width="71.694" height="76.099" viewBox="0 0 71.694 76.099">
  <g id="Groupe_88" data-name="Groupe 88" transform="translate(0)">
    <g id="Groupe_84" data-name="Groupe 84" transform="translate(6.342 4.177)">
      <path id="Tracé_993" data-name="Tracé 993" d="M77.1,121.08a5.073,5.073,0,1,1,5.073-5.073A5.073,5.073,0,0,1,77.1,121.08Zm0-7.61a2.537,2.537,0,1,0,2.537,2.537A2.536,2.536,0,0,0,77.1,113.471Z" transform="translate(-72.023 -98.622)" fill="#61acc9"/>
      <path id="Tracé_994" data-name="Tracé 994" d="M316.029,112.547a5.073,5.073,0,1,1,5.073-5.073A5.073,5.073,0,0,1,316.029,112.547Zm0-7.61a2.537,2.537,0,1,0,2.537,2.537A2.536,2.536,0,0,0,316.029,104.938Z" transform="translate(-275.443 -91.358)" fill="#61acc9"/>
      <path id="Tracé_995" data-name="Tracé 995" d="M102.7,360.013a5.073,5.073,0,1,1,5.073-5.073A5.073,5.073,0,0,1,102.7,360.013Zm0-7.61a2.537,2.537,0,1,0,2.537,2.537A2.536,2.536,0,0,0,102.7,352.4Z" transform="translate(-93.818 -302.043)" fill="#61acc9"/>
      <path id="Tracé_996" data-name="Tracé 996" d="M205.1,402.68a5.073,5.073,0,1,1,5.073-5.073A5.073,5.073,0,0,1,205.1,402.68Zm0-7.61a2.537,2.537,0,1,0,2.537,2.537A2.536,2.536,0,0,0,205.1,395.071Z" transform="translate(-180.998 -338.368)" fill="#61acc9"/>
      <path id="Tracé_997" data-name="Tracé 997" d="M211.926,29.893,210.133,28.1l-2.908,2.908L204.316,28.1l-1.793,1.793,2.908,2.908-2.908,2.908,1.793,1.793,2.908-2.908,2.908,2.908,1.793-1.793L209.018,32.8Z" transform="translate(-183.127 -28.1)" fill="#61acc9"/>
      <path id="Tracé_998" data-name="Tracé 998" d="M118.059,226.16l-1.793-1.793-2.908,2.908-2.908-2.908-1.793,1.793,2.908,2.908-2.908,2.908,1.793,1.793,2.908-2.908,2.908,2.908,1.793-1.793-2.908-2.908Z" transform="translate(-103.211 -195.196)" fill="#61acc9"/>
      <path id="Tracé_999" data-name="Tracé 999" d="M331.392,345.627l-1.793-1.793-2.908,2.908-2.908-2.908-1.793,1.793,2.908,2.908-2.908,2.908,1.793,1.793,2.908-2.908,2.908,2.908,1.793-1.793-2.908-2.908Z" transform="translate(-284.836 -296.906)" fill="#61acc9"/>
    </g>
    <g id="Groupe_85" data-name="Groupe 85" transform="translate(18.956 14.323)">
      <path id="Tracé_1000" data-name="Tracé 1000" d="M161.081,156.137h2.156V153.6h-5.073a1.269,1.269,0,0,0-1.268,1.268v5.073h2.537v-1.776a18.467,18.467,0,0,1-.939,23.753l1.878,1.707A21.016,21.016,0,0,0,161.081,156.137Z" transform="translate(-156.896 -145.093)" fill="#4398d1"/>
      <path id="Tracé_1001" data-name="Tracé 1001" d="M177.277,100.172l-3.8-3.8-1.793,1.793,1.64,1.64H157.356v2.537h15.963l-1.64,1.64,1.793,1.793,3.8-3.8A1.267,1.267,0,0,0,177.277,100.172Z" transform="translate(-157.288 -96.367)" fill="#4398d1"/>
      <path id="Tracé_1002" data-name="Tracé 1002" d="M238.305,170.667h-5.073V173.2h2.055a35.646,35.646,0,0,0-9.665,24.495v3.408h2.537V197.7a33.137,33.137,0,0,1,8.878-22.657v1.967h2.537v-5.073A1.269,1.269,0,0,0,238.305,170.667Z" transform="translate(-215.407 -159.624)" fill="#4398d1"/>
    </g>
    <path id="Soustraction_1" data-name="Soustraction 1" d="M4.886,30.951H0V26.065L21.986,4.079h0L20.835,5.232l4.885,4.885L4.886,30.951ZM28.02,7.811,23.138,2.929,21.991,4.076l0,0L26.059,0l0,0L24.908,1.159,29.79,6.041l-1.77,1.77Z" transform="translate(37.296 19.596)" fill="#619ef5"/>
    <path id="Tracé_1005" data-name="Tracé 1005" d="M437.751,145.045a3.456,3.456,0,0,0-4.886,0l-2.443,2.443,4.886,4.886,2.443-2.443A3.456,3.456,0,0,0,437.751,145.045Z" transform="translate(-367.068 -127.885)" fill="#619ef5"/>
    <path id="Tracé_1006" data-name="Tracé 1006" d="M88.967,0H30.624a1.269,1.269,0,0,0-1.268,1.268V74.831A1.269,1.269,0,0,0,30.624,76.1H80.089a1.275,1.275,0,0,0,.9-.372l8.878-8.878a1.262,1.262,0,0,0,.254-.372c.018-.039.028-.077.042-.118a1.272,1.272,0,0,0,.066-.328c0-.028.015-.052.015-.079V36.781H87.7v27.9h-7.61a1.269,1.269,0,0,0-1.268,1.268v7.61H31.893V2.537H87.7V19.025h2.537V1.268A1.269,1.269,0,0,0,88.967,0Zm-7.61,67.221h4.548l-4.548,4.548Z" transform="translate(-29.356 0)" fill="#fff"/>
    <path id="Tracé_1008" data-name="Tracé 1008" d="M82.169,116.007A5.073,5.073,0,1,0,77.1,121.08,5.073,5.073,0,0,0,82.169,116.007ZM77.1,118.544a2.537,2.537,0,1,1,2.537-2.537A2.536,2.536,0,0,1,77.1,118.544Z" transform="translate(-65.681 -94.446)" fill="#fff"/>
    <path id="Tracé_1009" data-name="Tracé 1009" d="M204.316,37.5l2.908-2.908,2.908,2.908,1.793-1.793L209.018,32.8l2.908-2.908L210.133,28.1l-2.908,2.908L204.316,28.1l-1.793,1.793,2.908,2.908-2.908,2.908Z" transform="translate(-176.785 -23.923)" fill="#fff"/>
    <path id="Tracé_1010" data-name="Tracé 1010" d="M316.029,112.547a5.073,5.073,0,1,0-5.073-5.073A5.073,5.073,0,0,0,316.029,112.547Zm0-7.61a2.537,2.537,0,1,1-2.537,2.537A2.536,2.536,0,0,1,316.029,104.937Z" transform="translate(-269.102 -87.18)" fill="#fff"/>
    <path id="Tracé_1011" data-name="Tracé 1011" d="M102.7,360.013a5.073,5.073,0,1,0-5.073-5.073A5.073,5.073,0,0,0,102.7,360.013Zm0-7.61a2.537,2.537,0,1,1-2.537,2.537A2.536,2.536,0,0,1,102.7,352.4Z" transform="translate(-87.476 -297.866)" fill="#fff"/>
    <path id="Tracé_1012" data-name="Tracé 1012" d="M115.151,229.069l2.908-2.908-1.793-1.793-2.908,2.908-2.908-2.908-1.793,1.793,2.908,2.908-2.908,2.908,1.793,1.793,2.908-2.908,2.908,2.908,1.793-1.793Z" transform="translate(-96.87 -191.019)" fill="#fff"/>
    <path id="Tracé_1013" data-name="Tracé 1013" d="M329.6,343.834l-2.908,2.908-2.908-2.908-1.793,1.793,2.908,2.908-2.908,2.908,1.793,1.793,2.908-2.908,2.908,2.908,1.793-1.793-2.908-2.908,2.908-2.908Z" transform="translate(-278.495 -292.73)" fill="#fff"/>
    <path id="Tracé_1014" data-name="Tracé 1014" d="M161.081,156.137h2.156V153.6h-5.073a1.269,1.269,0,0,0-1.268,1.268v5.073h2.537v-1.776a18.467,18.467,0,0,1-.939,23.753l1.878,1.707A21.016,21.016,0,0,0,161.081,156.137Z" transform="translate(-137.94 -130.77)" fill="#fff"/>
    <path id="Tracé_1015" data-name="Tracé 1015" d="M205.1,402.68a5.073,5.073,0,1,0-5.073-5.073A5.073,5.073,0,0,0,205.1,402.68Zm0-7.61a2.537,2.537,0,1,1-2.537,2.537A2.536,2.536,0,0,1,205.1,395.071Z" transform="translate(-174.657 -334.191)" fill="#fff"/>
    <path id="Tracé_1016" data-name="Tracé 1016" d="M157.356,102.337h15.963l-1.64,1.64,1.793,1.793,3.8-3.8a1.269,1.269,0,0,0,0-1.793l-3.8-3.8-1.793,1.793,1.64,1.64H157.356Z" transform="translate(-138.331 -82.044)" fill="#fff"/>
    <path id="Tracé_1017" data-name="Tracé 1017" d="M237.037,177.008h2.537v-5.073a1.269,1.269,0,0,0-1.268-1.268h-5.073V173.2h2.055a35.649,35.649,0,0,0-9.665,24.5v3.407h2.537V197.7a33.131,33.131,0,0,1,8.878-22.657v1.966Z" transform="translate(-196.451 -145.301)" fill="#fff"/>
  </g>
</svg>
