<svg xmlns="http://www.w3.org/2000/svg" width="24.291" height="21.862" viewBox="0 0 24.291 21.862">
  <path id="message" d="M20.145,3a6.141,6.141,0,0,1,6.147,6.134v9.6a6.143,6.143,0,0,1-6.147,6.134h-12A6.142,6.142,0,0,1,2,18.729v-9.6A6.134,6.134,0,0,1,8.146,3Zm1.932,7.943.1-.1a.939.939,0,0,0-.013-1.215,1.021,1.021,0,0,0-.643-.316.923.923,0,0,0-.681.243l-5.477,4.372a1.9,1.9,0,0,1-2.429,0L7.466,9.559a.929.929,0,0,0-1.3,1.3l.159.158,5.526,4.312a3.825,3.825,0,0,0,4.748,0Z" transform="translate(-2 -3)" fill="#619ef5" fill-rule="evenodd"/>
</svg>
