<svg id="select" xmlns="http://www.w3.org/2000/svg" width="79.101" height="76.099" viewBox="0 0 79.101 76.099">
  <path id="Tracé_934" data-name="Tracé 934" d="M7,36H9.552V53.861H7Z" transform="translate(0.655 8.653)" fill="#fff"/>
  <path id="Tracé_935" data-name="Tracé 935" d="M8.827,56.655a3.827,3.827,0,1,1,3.827-3.827A3.832,3.832,0,0,1,8.827,56.655Z" transform="translate(0.103 12.239)" fill="#619ef5"/>
  <path id="Tracé_936" data-name="Tracé 936" d="M13,41h2.552V58.861H13Z" transform="translate(2.31 10.033)" fill="#fff"/>
  <path id="Tracé_937" data-name="Tracé 937" d="M14.827,43.655a3.827,3.827,0,1,1,3.827-3.827A3.832,3.832,0,0,1,14.827,43.655Z" transform="translate(1.758 8.653)" fill="#619ef5"/>
  <path id="Tracé_938" data-name="Tracé 938" d="M51,36h2.552V53.861H51Z" transform="translate(12.791 8.653)" fill="#fff"/>
  <path id="Tracé_939" data-name="Tracé 939" d="M52.827,56.655a3.827,3.827,0,1,1,3.827-3.827A3.832,3.832,0,0,1,52.827,56.655Z" transform="translate(12.239 12.239)" fill="#619ef5"/>
  <path id="Tracé_940" data-name="Tracé 940" d="M57,41h2.552V58.861H57Z" transform="translate(14.446 10.033)" fill="#fff"/>
  <path id="Tracé_941" data-name="Tracé 941" d="M58.827,43.655a3.827,3.827,0,1,1,3.827-3.827A3.832,3.832,0,0,1,58.827,43.655Z" transform="translate(13.894 8.653)" fill="#619ef5"/>
  <path id="Tracé_942" data-name="Tracé 942" d="M67.342,17.586a12.684,12.684,0,0,0-4.937,1l-7.86-4.324a14.015,14.015,0,0,0-27.989,0L18.7,18.581a12.9,12.9,0,1,0,2.591,1.486l5.4-2.968A14.073,14.073,0,0,0,36.724,28.532V52.049a3.827,3.827,0,0,1-.39,1.683l-1.07-5.351a8.246,8.246,0,0,0-8.063-6.61A3.234,3.234,0,0,0,24.509,46.8l1.313,1.97a5.692,5.692,0,0,1,.908,2.442l.883,7.059a8.666,8.666,0,0,0,1.068,3.25L32.9,70.187V77.1h2.552V69.6l-4.511-9.271a6.3,6.3,0,0,1-.791-2.372l-.883-7.06a8.241,8.241,0,0,0-1.317-3.54l-1.314-1.971a.683.683,0,0,1,.568-1.061,5.689,5.689,0,0,1,5.561,4.558l1.641,8.2h3.11L38.6,54.9a6.414,6.414,0,0,0,.674-2.851V27.792a1.276,1.276,0,0,1,2.552,0V48.205h2.552V43.1a1.276,1.276,0,1,1,2.552,0v5.1h2.552V43.1a1.276,1.276,0,1,1,2.552,0v5.1h2.552V45.653a1.276,1.276,0,0,1,2.552,0V62.239a6.415,6.415,0,0,1-1.276,3.827l-2.552,3.4V77.1H55.86v-6.78L57.9,67.6a8.979,8.979,0,0,0,1.786-5.358V45.653a3.815,3.815,0,0,0-5.251-3.547,3.794,3.794,0,0,0-6.231-1.837,3.71,3.71,0,0,0-3.827-.76V28.531A14.081,14.081,0,0,0,54.418,17.1l5.394,2.968a12.734,12.734,0,1,0,7.53-2.483ZM7.644,38.5a7.652,7.652,0,0,1,12.227,0,10.13,10.13,0,0,1-12.227,0Zm2.286-9.43A3.827,3.827,0,1,1,13.758,32.9,3.832,3.832,0,0,1,9.931,29.068Zm14.034,1.276a10.148,10.148,0,0,1-2.256,6.384,10.2,10.2,0,0,0-3.739-2.906,6.379,6.379,0,1,0-8.423,0,10.215,10.215,0,0,0-3.739,2.906,10.2,10.2,0,1,1,18.157-6.384ZM40.55,23.965a3.814,3.814,0,0,0-3.367,2.046,11.4,11.4,0,0,1-3.826-2.043,7.62,7.62,0,0,1,14.386,0,11.382,11.382,0,0,1-3.825,2.045A3.818,3.818,0,0,0,40.55,23.965ZM36.723,12.482A3.827,3.827,0,1,1,40.55,16.31,3.832,3.832,0,0,1,36.723,12.482Zm12.96,9.482a10.161,10.161,0,0,0-4.9-4.742,6.379,6.379,0,1,0-8.456,0,10.161,10.161,0,0,0-4.906,4.743,11.483,11.483,0,1,1,18.266,0ZM61.229,38.5a7.652,7.652,0,0,1,12.227,0,10.13,10.13,0,0,1-12.227,0Zm2.286-9.43A3.827,3.827,0,1,1,67.342,32.9,3.832,3.832,0,0,1,63.515,29.068Zm11.778,7.66a10.2,10.2,0,0,0-3.739-2.906,6.379,6.379,0,1,0-8.423,0,10.215,10.215,0,0,0-3.739,2.906,10.207,10.207,0,1,1,15.9,0Z" transform="translate(-1 -1)" fill="#fff"/>
</svg>
