<svg xmlns="http://www.w3.org/2000/svg" width="88.55" height="76.099" viewBox="0 0 88.55 76.099">
  <g id="video-call_1_" data-name="video-call (1)" transform="translate(0)">
    <g id="Groupe_81" data-name="Groupe 81" transform="translate(37.318 29.724)">
      <ellipse id="Ellipse_17" data-name="Ellipse 17" cx="7.042" cy="6.979" rx="7.042" ry="6.979" fill="#619ef5"/>
    </g>
    <g id="Groupe_82" data-name="Groupe 82" transform="translate(0 0)">
      <path id="Tracé_972" data-name="Tracé 972" d="M12.106,112.1H36.492a1.729,1.729,0,1,0,0-3.459H12.106a8.662,8.662,0,0,1-8.474-6.92H84.917a8.662,8.662,0,0,1-8.474,6.92H52.058a1.729,1.729,0,1,0,0,3.459H76.443A12.12,12.12,0,0,0,88.55,99.991a1.73,1.73,0,0,0-1.729-1.729H80.767V53.295a1.73,1.73,0,0,0-1.729-1.729H66.758V37.729a1.729,1.729,0,0,0-2.689-1.439L51.193,44.875V37.729A1.73,1.73,0,0,0,49.463,36H23.521a1.73,1.73,0,0,0-1.729,1.729V51.565H9.512a1.73,1.73,0,0,0-1.729,1.729V98.262H1.729A1.73,1.73,0,0,0,0,99.991,12.12,12.12,0,0,0,12.106,112.1ZM52.922,98.262H35.627V93.073a8.647,8.647,0,0,1,17.295,0ZM63.3,40.961V55.252L52.581,48.106Zm-38.049-1.5H47.734V56.754H25.251ZM11.242,55.024h10.55v3.459a1.73,1.73,0,0,0,1.729,1.729H49.463a1.73,1.73,0,0,0,1.729-1.729V51.338l12.877,8.584a1.729,1.729,0,0,0,2.689-1.439V55.024h10.55V98.262H56.381V93.073a12.106,12.106,0,0,0-24.213,0v5.188H11.242Z" transform="translate(0 -36)" fill="#fff"/>
      <rect id="Rectangle_31" data-name="Rectangle 31" width="23.008" height="3.001" transform="translate(35.734 73.098)" fill="#fff"/>
    </g>
  </g>
</svg>
